<svg width="532" height="206" viewBox="0 0 532 206" fill="none" xmlns="http://www.w3.org/2000/svg">
<g opacity="0.9">
<path d="M194.833 192.652C189.003 193.862 183.463 192.812 178.133 190.392C175.053 188.992 172.383 189.002 169.013 190.432C162.293 193.272 155.033 194.442 147.713 194.842C145.343 194.972 142.913 194.532 140.653 195.602C139.833 195.412 139.013 195.042 138.203 195.042C130.323 195.002 122.463 195.012 114.863 192.422C113.113 191.822 112.163 193.102 111.023 194.282C108.303 197.102 106.523 200.832 102.883 202.742C87.0526 211.042 68.7626 200.962 68.6826 183.822C68.6626 180.492 67.0926 179.242 63.9326 179.572C61.5526 179.822 59.1726 180.032 56.8026 180.262C49.5926 178.702 43.2426 174.992 36.5226 172.182C30.2626 168.462 27.3126 162.222 24.3926 156.022C23.1226 153.332 22.4226 150.462 23.3526 147.452C26.3626 147.102 28.7726 148.662 31.2826 149.932C39.2026 153.922 47.7526 155.202 56.3126 153.942C60.9726 153.262 63.9226 154.382 66.6126 157.642C69.4126 161.042 72.4426 163.952 76.8626 165.312C85.9826 168.102 95.0426 168.112 103.493 163.722C108.143 161.312 110.753 162.422 113.903 165.922C120.143 172.872 128.273 173.302 136.413 170.572C145.373 167.562 150.663 160.712 152.443 151.502C154.543 140.672 149.303 133.202 140.583 127.622C134.083 123.462 134.083 123.502 138.143 117.252C138.823 116.212 139.133 114.932 139.733 113.832C141.333 110.872 143.273 109.562 146.923 111.142C152.873 113.732 159.033 115.722 165.733 113.732C167.483 113.212 169.573 113.252 169.403 116.182C168.973 123.602 173.203 129.002 177.673 134.052C184.663 141.942 193.853 144.002 204.073 143.322C211.003 142.862 216.493 139.702 221.013 134.962C225.003 130.772 226.533 130.552 231.733 133.062C242.123 138.082 252.803 140.062 263.443 133.502C266.023 131.912 267.933 131.472 269.083 135.162C272.243 145.262 279.013 152.412 288.453 156.722C298.503 161.312 308.783 160.192 318.733 156.022C321.383 154.912 322.873 155.292 324.283 157.682C326.803 161.942 329.713 165.942 333.663 169.002C344.793 177.622 366.323 177.252 376.043 162.452C378.793 158.272 381.373 153.922 385.933 151.132C392.143 147.332 391.883 147.292 397.223 152.232C403.963 158.462 411.643 163.182 421.113 163.492C436.683 164.012 447.713 156.162 455.963 143.682C457.393 141.522 458.673 139.082 461.343 138.672C468.713 137.542 473.083 132.622 477.173 127.092C479.583 123.842 482.253 123.792 485.443 126.332C488.593 128.832 491.463 131.892 495.893 132.222C505.433 132.932 514.343 131.552 522.123 125.322C524.693 123.262 527.473 121.072 531.163 121.192C531.973 129.062 531.723 136.722 527.083 143.632C525.543 145.932 524.263 148.402 522.863 150.792C519.813 153.572 516.763 156.352 513.713 159.142C507.913 163.112 501.993 166.472 494.693 167.332C483.713 168.632 473.433 167.902 464.533 160.512C462.913 159.172 461.493 158.612 460.083 160.932C459.293 162.222 457.853 163.102 456.943 164.342C446.713 178.402 428.583 183.782 411.503 178.212C405.493 176.252 400.403 172.902 395.413 169.262C393.233 167.672 391.643 167.312 390.263 170.412C385.353 181.472 376.423 188.292 365.663 193.062C357.153 195.162 348.493 195.132 339.803 195.022C336.353 194.972 333.283 193.932 330.083 192.842C321.773 190.012 315.183 184.792 309.083 178.752C308.453 177.832 307.753 176.942 307.213 175.972C304.793 171.642 301.923 169.962 296.323 170.872C288.963 172.062 281.133 172.212 273.973 168.862C270.513 167.242 267.883 166.852 266.943 171.552C266.793 172.312 266.113 172.992 265.623 173.672C260.823 180.462 254.543 185.592 246.883 188.622C235.813 193.012 224.563 193.002 213.393 188.622C210.413 187.452 207.273 185.902 204.293 188.372C201.493 190.692 198.213 191.722 194.843 192.672L194.833 192.652Z" fill="#B3DBF4"/>
<path d="M23.342 147.452C23.312 147.312 23.2619 147.172 23.2619 147.042C23.4919 141.652 23.662 136.282 17.852 133.252C19.582 131.382 20.492 129.982 19.412 126.762C17.722 121.702 16.402 116.052 17.292 110.652C18.582 102.882 21.332 95.5823 26.022 88.9923C32.432 80.0023 45.072 78.6523 52.972 86.4123C54.572 87.9823 55.902 90.9223 58.772 89.5923C61.502 88.3323 61.092 85.3723 61.082 82.8423C61.082 82.4223 61.002 81.9723 61.102 81.5723C62.302 76.7523 62.1019 71.4323 66.0719 67.5923C69.4419 64.3223 72.852 62.6723 77.772 65.0623C83.232 67.7123 84.5319 66.6223 84.7619 60.5123C84.8419 58.4823 85.6019 56.6923 86.2619 54.8423C88.1119 49.6223 91.472 45.3323 94.522 40.8023C99.112 34.0023 105.732 30.5223 113.322 29.2423C118.062 28.4423 123.352 29.0022 126.912 33.1122C128.952 35.4622 131.222 37.5522 133.282 39.8622C135.762 42.6322 138.572 42.1622 141.262 40.4222C143.152 39.1922 144.472 37.3623 145.572 35.3123C148.282 30.2523 151.872 26.4723 158.252 26.2523C160.532 26.1723 162.822 25.1223 165.012 24.0623C171.502 20.9223 178.402 21.3022 184.632 24.1122C195.982 29.2422 204.562 37.6423 209.312 49.3323C210.552 52.3923 214.032 55.8323 209.622 59.4823C205.692 62.7523 206.052 64.1023 210.872 65.7623C211.902 66.1223 213.072 66.2323 214.172 66.2123C216.892 66.1623 219.032 66.8523 220.592 69.3723C221.762 71.2723 228.182 72.2423 229.912 70.9023C231.802 69.4423 231.622 67.6323 229.662 66.4323C227.752 65.2623 225.592 64.5223 223.262 64.5423C222.102 64.5423 220.772 64.4823 220.532 63.1323C220.262 61.6223 221.512 60.8423 222.732 60.4623C227.172 59.0823 231.552 57.7423 236.092 60.5423C237.672 61.5223 239.832 61.8422 241.762 61.9222C244.382 62.0322 246.252 63.1823 248.042 64.9123C251.952 68.6923 255.202 69.2723 259.792 66.2123C271.682 58.3023 282.942 61.3222 294.122 67.6722C296.792 69.1922 299.562 71.6423 302.612 69.9623C305.252 68.5123 304.062 65.3923 304.072 62.7423C304.132 49.1723 315.212 36.8023 328.692 33.9723C334.822 32.6823 340.682 34.8423 346.692 34.1223C350.482 33.6723 353.502 35.3423 355.892 38.2523C357.582 40.3123 359.382 42.2823 361.092 44.3323C363.822 47.6023 363.682 49.8223 360.292 52.5123C356.992 55.1323 353.612 57.6623 350.092 59.9623C348.052 61.2923 347.312 62.6923 348.532 64.8323C349.652 66.8123 351.642 67.8722 353.502 66.6722C358.332 63.5722 363.712 62.6923 369.152 62.4823C376.102 62.2223 383.072 60.1823 390.002 62.1523C393.642 63.1923 397.272 62.6623 400.912 62.8123C402.672 62.8823 403.912 61.9123 404.412 60.2923C404.892 58.7323 404.802 56.9523 403.252 56.1223C397.762 53.1623 392.882 48.6423 385.932 49.2823C382.542 49.5923 379.232 49.1823 376.012 47.8123C373.252 46.6423 372.762 44.8723 374.202 42.5023C374.922 41.3223 375.852 40.1322 376.972 39.3622C382.952 35.2022 387.592 29.1123 395.592 27.8823C401.882 26.9123 406.952 22.3223 413.042 20.5923C421.992 18.0423 431.102 19.7623 440.132 20.2623C442.402 20.3923 444.802 20.1723 447.152 21.1823C454.792 24.4523 459.542 30.5823 463.702 37.3023C465.072 39.5123 467.402 41.3223 467.202 44.3123C466.932 48.4023 469.002 51.5223 471.232 54.6623C473.902 58.4323 476.472 62.1323 476.702 67.1823C476.852 70.4823 477.062 74.3523 480.742 76.3823C480.692 77.5223 480.632 78.6623 480.582 79.7923C475.882 80.2023 472.852 83.5723 474.522 86.5323C477.112 91.1223 487.162 92.6523 490.512 88.5923C492.452 86.2323 494.012 86.3823 496.252 87.4823C497.752 88.2223 499.302 89.1023 500.912 89.3323C504.392 89.8323 508.202 92.3223 511.222 88.2223C523.952 95.5323 529.642 107.092 531.132 121.192C527.442 121.062 524.672 123.262 522.092 125.322C514.312 131.552 505.402 132.932 495.862 132.222C491.432 131.892 488.562 128.832 485.412 126.332C482.222 123.802 479.552 123.842 477.142 127.092C473.052 132.622 468.672 137.542 461.312 138.672C458.632 139.082 457.352 141.512 455.932 143.682C447.692 156.172 436.652 164.012 421.082 163.492C411.612 163.172 403.932 158.462 397.192 152.232C391.852 147.292 392.102 147.332 385.902 151.132C381.342 153.922 378.762 158.282 376.012 162.452C366.292 177.252 344.762 177.612 333.632 169.002C329.682 165.942 326.772 161.942 324.252 157.682C322.842 155.292 321.352 154.922 318.702 156.022C308.752 160.192 298.472 161.302 288.422 156.722C278.982 152.412 272.202 145.262 269.052 135.162C267.902 131.472 265.992 131.912 263.412 133.502C252.772 140.062 242.092 138.092 231.702 133.062C226.512 130.552 224.982 130.772 220.982 134.962C216.462 139.702 210.972 142.862 204.042 143.322C193.822 144.002 184.632 141.942 177.642 134.052C173.172 129.002 168.952 123.602 169.372 116.182C169.542 113.252 167.452 113.212 165.702 113.732C158.992 115.722 152.842 113.732 146.892 111.142C143.242 109.552 141.302 110.862 139.702 113.832C139.102 114.942 138.792 116.212 138.112 117.252C134.052 123.512 134.042 123.462 140.552 127.622C149.272 133.202 154.512 140.672 152.412 151.502C150.632 160.712 145.342 167.562 136.382 170.572C128.242 173.302 120.112 172.872 113.872 165.922C110.722 162.412 108.112 161.312 103.462 163.722C95.002 168.112 85.952 168.102 76.832 165.312C72.412 163.962 69.382 161.042 66.582 157.642C63.892 154.382 60.942 153.252 56.282 153.942C47.732 155.202 39.1719 153.922 31.2519 149.932C28.7419 148.672 26.3319 147.102 23.3219 147.452H23.342Z" fill="#E9F5FC"/>
<path d="M480.742 55.252C481.552 61.232 482.222 67.222 481.602 73.272C481.492 74.342 481.852 75.562 480.782 76.382C477.102 74.362 476.892 70.4819 476.742 67.1819C476.512 62.1319 473.942 58.432 471.272 54.662C469.042 51.522 466.972 48.402 467.242 44.312C467.442 41.322 465.112 39.5019 463.742 37.3019C459.582 30.5819 454.832 24.4519 447.192 21.1819C444.842 20.1719 442.442 20.392 440.172 20.262C431.152 19.762 422.032 18.042 413.082 20.592C406.992 22.332 401.912 26.922 395.632 27.882C387.632 29.112 382.992 35.2119 377.012 39.3619C375.892 40.1419 374.962 41.322 374.242 42.502C372.802 44.872 373.282 46.642 376.052 47.812C379.262 49.172 382.572 49.592 385.972 49.282C392.922 48.642 397.802 53.1619 403.292 56.1219C404.842 56.9619 404.932 58.742 404.452 60.292C403.952 61.912 402.712 62.882 400.952 62.812C397.312 62.662 393.682 63.192 390.042 62.152C383.112 60.182 376.142 62.222 369.192 62.482C363.752 62.682 358.372 63.5619 353.542 66.6719C351.682 67.8619 349.692 66.802 348.572 64.832C347.362 62.692 348.092 61.302 350.132 59.962C353.652 57.662 357.032 55.132 360.332 52.512C363.722 49.822 363.862 47.602 361.132 44.332C359.422 42.282 357.632 40.312 355.932 38.252C353.532 35.332 350.512 33.6719 346.732 34.1219C340.722 34.8319 334.862 32.682 328.732 33.972C315.252 36.792 304.172 49.1719 304.112 62.7419C304.102 65.3919 305.292 68.512 302.652 69.962C299.592 71.642 296.832 69.1919 294.162 67.6719C282.982 61.3119 271.722 58.302 259.832 66.212C255.242 69.262 251.992 68.692 248.082 64.912C246.292 63.182 244.422 62.0319 241.802 61.9219C239.882 61.8419 237.722 61.522 236.132 60.542C231.592 57.742 227.212 59.082 222.772 60.462C221.552 60.842 220.292 61.622 220.572 63.132C220.812 64.482 222.142 64.552 223.302 64.542C225.632 64.522 227.792 65.2619 229.702 66.4319C231.662 67.6319 231.842 69.442 229.952 70.902C228.222 72.242 221.792 71.2719 220.632 69.3719C219.082 66.8519 216.932 66.162 214.212 66.212C213.112 66.232 211.942 66.112 210.912 65.762C206.092 64.102 205.732 62.752 209.662 59.482C214.062 55.822 210.592 52.392 209.352 49.332C204.602 37.642 196.022 29.2419 184.672 24.1119C178.442 21.3019 171.542 20.9219 165.052 24.0619C162.862 25.1219 160.562 26.172 158.292 26.252C151.912 26.482 148.322 30.252 145.612 35.312C144.512 37.362 143.192 39.1919 141.302 40.4219C138.612 42.1619 135.802 42.6319 133.322 39.8619C131.262 37.5619 128.992 35.4619 126.952 33.1119C123.382 28.9919 118.092 28.4319 113.362 29.2419C105.772 30.5319 99.1517 34.0019 94.5617 40.8019C91.5017 45.3319 88.1517 49.622 86.3017 54.842C85.6417 56.692 84.8817 58.482 84.8017 60.512C84.5717 66.622 83.2717 67.712 77.8117 65.062C72.8917 62.672 69.4917 64.322 66.1117 67.592C62.1517 71.432 62.3417 76.752 61.1417 81.572C61.0417 81.972 61.1217 82.412 61.1217 82.842C61.1217 85.372 61.5417 88.332 58.8117 89.592C55.9417 90.922 54.6117 87.982 53.0117 86.412C45.1117 78.652 32.4717 80.0019 26.0617 88.9919C21.3717 95.5819 18.6217 102.882 17.3317 110.652C16.4317 116.052 17.7617 121.702 19.4517 126.762C20.5317 129.982 19.6217 131.382 17.8917 133.252C17.6017 133.222 17.3517 133.102 17.1417 132.912C16.9617 131.262 15.7417 131.382 14.5717 131.402C5.36169 124.192 0.0916854 115.212 0.00168544 103.052C-0.108315 88.7519 5.1617 77.6619 17.0817 69.8019C24.6217 64.8319 33.1217 63.962 41.8217 64.662C44.9817 64.922 46.1717 63.642 47.3517 60.902C55.8617 41.072 68.3817 24.702 87.3617 13.512C107.652 1.54196 129.512 -1.34803 152.442 0.521971C155.132 1.18197 157.802 1.86194 160.502 2.49194C168.652 4.38194 176.382 7.50196 184.132 10.572C189.072 15.382 195.582 18.062 200.532 22.972C208.112 30.462 216.952 36.812 220.852 47.352C221.792 49.882 223.322 49.4119 225.202 48.3719C228.622 46.4719 230.562 43.0119 233.632 40.7419C243.432 33.4719 254.612 33.4019 265.982 34.4919C269.022 34.7819 272.222 35.062 274.742 37.192C276.772 38.902 277.702 37.822 278.992 36.062C281.402 32.782 283.022 28.972 286.112 26.142C298.992 14.362 314.212 8.54197 331.542 8.83197C341.722 9.00197 351.652 10.912 360.612 16.412C364.732 18.932 368.522 21.792 372.102 24.982C373.442 26.182 375.022 27.272 376.392 25.272C379.192 21.172 383.422 18.912 387.282 16.082C402.482 4.94197 419.852 3.56195 436.862 8.00195C457.062 13.282 471.622 26.592 478.892 46.832C479.122 49.732 479.202 52.662 480.752 55.272L480.742 55.252Z" fill="white"/>
<path d="M14.541 131.402C15.701 131.382 16.931 131.262 17.111 132.912C15.821 133.142 15.041 132.512 14.541 131.402Z" fill="#E9F5FC"/>
<path d="M480.622 79.7922C481.872 81.1622 483.522 80.6922 484.982 80.5822C492.752 80.0022 500.162 80.7922 506.662 85.6122C508.082 86.6622 510.252 86.4322 511.272 88.2122C508.262 92.3222 504.452 89.8322 500.962 89.3222C499.352 89.0922 497.802 88.2122 496.302 87.4722C494.062 86.3722 492.502 86.2222 490.562 88.5822C487.212 92.6422 477.162 91.1122 474.572 86.5222C472.902 83.5622 475.922 80.2022 480.632 79.7822L480.622 79.7922Z" fill="white"/>
</g>
</svg>
