<svg width="690" height="267" viewBox="0 0 690 267" fill="none" xmlns="http://www.w3.org/2000/svg">
<g opacity="0.9">
<path d="M253.079 250.041C245.519 251.611 238.349 250.251 231.449 247.111C227.459 245.291 223.989 245.311 219.639 247.161C210.939 250.851 201.529 252.361 192.029 252.871C188.969 253.041 185.819 252.471 182.879 253.861C181.819 253.611 180.759 253.141 179.699 253.141C169.499 253.091 159.299 253.101 149.459 249.751C147.189 248.981 145.959 250.641 144.479 252.171C140.959 255.821 138.649 260.651 133.929 263.131C113.419 273.891 89.7191 260.821 89.6191 238.611C89.5991 234.301 87.5491 232.681 83.4691 233.101C80.3891 233.421 77.3092 233.701 74.2292 234.001C64.8892 231.971 56.6492 227.171 47.9492 223.531C39.8392 218.711 36.0191 210.631 32.2291 202.591C30.5891 199.111 29.6791 195.381 30.8791 191.481C34.7791 191.031 37.8991 193.051 41.1491 194.691C51.4091 199.861 62.4991 201.511 73.5791 199.891C79.6191 199.001 83.4391 200.461 86.9291 204.691C90.5491 209.091 94.4791 212.871 100.209 214.621C112.029 218.241 123.759 218.251 134.719 212.561C140.739 209.441 144.129 210.871 148.209 215.421C156.299 224.431 166.829 224.981 177.379 221.441C188.989 217.541 195.839 208.661 198.159 196.731C200.879 182.701 194.089 173.021 182.799 165.791C174.369 160.401 174.379 160.461 179.639 152.351C180.519 151.001 180.929 149.351 181.699 147.921C183.769 144.081 186.289 142.381 191.019 144.441C198.729 147.791 206.709 150.381 215.399 147.801C217.669 147.131 220.379 147.181 220.159 150.971C219.609 160.581 225.079 167.581 230.869 174.121C239.929 184.351 251.839 187.011 265.079 186.131C274.059 185.541 281.169 181.441 287.029 175.301C292.199 169.871 294.179 169.591 300.919 172.841C314.379 179.351 328.219 181.911 342.009 173.411C345.349 171.351 347.829 170.771 349.319 175.561C353.409 188.651 362.189 197.911 374.419 203.491C387.439 209.441 400.759 207.991 413.659 202.591C417.089 201.151 419.029 201.641 420.849 204.731C424.109 210.251 427.879 215.431 432.999 219.391C447.419 230.551 475.319 230.081 487.919 210.911C491.479 205.491 494.819 199.851 500.729 196.231C508.769 191.301 508.439 191.251 515.359 197.651C524.089 205.731 534.039 211.841 546.319 212.251C566.489 212.921 580.789 202.761 591.479 186.581C593.329 183.781 594.989 180.621 598.459 180.091C608.009 178.631 613.679 172.251 618.979 165.081C622.099 160.871 625.569 160.811 629.699 164.091C633.779 167.331 637.499 171.301 643.239 171.721C655.599 172.641 667.149 170.851 677.229 162.781C680.559 160.111 684.159 157.271 688.939 157.431C689.999 167.631 689.659 177.551 683.649 186.501C681.649 189.481 679.989 192.681 678.179 195.781C674.229 199.381 670.279 202.991 666.329 206.601C658.809 211.751 651.139 216.101 641.679 217.211C627.449 218.891 614.129 217.951 602.589 208.371C600.489 206.631 598.649 205.911 596.819 208.921C595.799 210.601 593.929 211.731 592.759 213.341C579.499 231.551 556.009 238.521 533.869 231.321C526.079 228.781 519.489 224.441 513.019 219.721C510.189 217.661 508.129 217.201 506.349 221.211C499.989 235.541 488.419 244.381 474.469 250.551C463.439 253.271 452.219 253.241 440.959 253.091C436.489 253.031 432.509 251.681 428.359 250.271C417.599 246.601 409.049 239.841 401.149 232.011C400.339 230.811 399.429 229.671 398.729 228.411C395.589 222.801 391.869 220.631 384.609 221.791C375.069 223.331 364.929 223.531 355.639 219.181C351.159 217.081 347.749 216.571 346.519 222.671C346.319 223.661 345.439 224.531 344.809 225.421C338.589 234.221 330.459 240.861 320.529 244.801C306.189 250.491 291.609 250.471 277.129 244.801C273.269 243.281 269.199 241.281 265.339 244.471C261.709 247.481 257.459 248.811 253.089 250.041H253.079Z" fill="#B3DBF4"/>
<path d="M30.8704 191.471C30.8404 191.291 30.7604 191.111 30.7704 190.941C31.0604 183.951 31.2904 177.001 23.7604 173.081C26.0004 170.651 27.1804 168.841 25.7804 164.671C23.5904 158.111 21.8804 150.801 23.0404 143.801C24.7104 133.731 28.2704 124.271 34.3604 115.731C42.6604 104.081 59.0504 102.331 69.2804 112.381C71.3604 114.421 73.0804 118.231 76.8004 116.501C80.3304 114.861 79.8004 111.041 79.7904 107.751C79.7904 107.201 79.6804 106.631 79.8104 106.111C81.3604 99.8612 81.1104 92.9712 86.2504 88.0012C90.6204 83.7612 95.0304 81.6312 101.4 84.7212C108.48 88.1512 110.16 86.7412 110.46 78.8212C110.56 76.1912 111.55 73.8712 112.4 71.4712C114.79 64.7012 119.15 59.1412 123.11 53.2712C129.05 44.4612 137.63 39.9512 147.47 38.2912C153.61 37.2512 160.46 37.9812 165.09 43.3112C167.73 46.3512 170.67 49.0712 173.34 52.0512C176.55 55.6412 180.19 55.0412 183.68 52.7812C186.13 51.1912 187.84 48.8112 189.26 46.1612C192.77 39.6012 197.42 34.7112 205.69 34.4212C208.64 34.3112 211.61 32.9612 214.45 31.5812C222.87 27.5112 231.81 28.0012 239.88 31.6512C254.59 38.3012 265.71 49.1812 271.86 64.3312C273.47 68.3012 277.97 72.7512 272.27 77.4912C267.17 81.7212 267.64 83.4812 273.89 85.6212C275.23 86.0812 276.74 86.2312 278.17 86.2112C281.69 86.1512 284.47 87.0412 286.48 90.3112C287.99 92.7712 296.32 94.0312 298.56 92.2912C301.01 90.4012 300.77 88.0612 298.24 86.5012C295.77 84.9812 292.96 84.0312 289.95 84.0512C288.45 84.0612 286.73 83.9712 286.41 82.2212C286.06 80.2712 287.68 79.2512 289.27 78.7612C295.02 76.9712 300.7 75.2412 306.58 78.8712C308.63 80.1412 311.43 80.5512 313.92 80.6612C317.31 80.8112 319.74 82.2912 322.06 84.5312C327.13 89.4312 331.34 90.1812 337.29 86.2212C352.69 75.9712 367.29 79.8812 381.77 88.1112C385.24 90.0812 388.81 93.2612 392.78 91.0812C396.2 89.2012 394.65 85.1512 394.67 81.7212C394.75 64.1412 409.11 48.1012 426.58 44.4412C434.53 42.7712 442.12 45.5612 449.9 44.6412C454.81 44.0612 458.72 46.2112 461.83 49.9912C464.02 52.6612 466.35 55.2112 468.56 57.8612C472.1 62.1012 471.91 64.9812 467.52 68.4712C463.25 71.8612 458.87 75.1412 454.31 78.1212C451.66 79.8512 450.71 81.6512 452.28 84.4212C453.73 86.9812 456.31 88.3512 458.72 86.8112C464.97 82.7912 471.95 81.6512 479 81.3912C488 81.0512 497.04 78.4112 506.02 80.9712C510.74 82.3112 515.44 81.6412 520.15 81.8312C522.43 81.9212 524.04 80.6712 524.69 78.5712C525.31 76.5512 525.19 74.2412 523.19 73.1612C516.08 69.3212 509.75 63.4612 500.74 64.2912C496.34 64.7012 492.05 64.1612 487.89 62.3912C484.31 60.8712 483.68 58.5812 485.55 55.5012C486.48 53.9712 487.69 52.4312 489.14 51.4312C496.89 46.0412 502.9 38.1412 513.27 36.5512C521.42 35.3012 527.99 29.3512 535.88 27.1012C547.47 23.8012 559.29 26.0212 570.98 26.6712C573.92 26.8312 577.03 26.5612 580.08 27.8612C589.98 32.1012 596.13 40.0412 601.53 48.7512C603.3 51.6112 606.32 53.9612 606.06 57.8412C605.71 63.1412 608.4 67.1912 611.29 71.2612C614.75 76.1412 618.08 80.9412 618.38 87.4812C618.58 91.7512 618.85 96.7712 623.61 99.4012C623.54 100.871 623.47 102.351 623.4 103.821C617.3 104.361 613.39 108.721 615.55 112.551C618.91 118.501 631.93 120.481 636.27 115.221C638.79 112.171 640.8 112.351 643.71 113.781C645.66 114.741 647.66 115.881 649.75 116.181C654.27 116.831 659.2 120.061 663.11 114.741C679.6 124.221 686.98 139.191 688.9 157.461C684.12 157.301 680.52 160.141 677.19 162.811C667.11 170.881 655.57 172.671 643.2 171.751C637.46 171.321 633.74 167.361 629.66 164.121C625.53 160.841 622.06 160.901 618.94 165.111C613.64 172.271 607.97 178.661 598.42 180.121C594.95 180.651 593.29 183.811 591.44 186.611C580.76 202.791 566.45 212.951 546.28 212.281C534.01 211.871 524.05 205.761 515.32 197.681C508.4 191.281 508.73 191.331 500.69 196.261C494.78 199.881 491.43 205.521 487.88 210.941C475.28 230.121 447.39 230.591 432.96 219.421C427.84 215.461 424.07 210.281 420.81 204.761C418.98 201.671 417.05 201.181 413.62 202.621C400.72 208.021 387.4 209.471 374.38 203.521C362.15 197.941 353.37 188.681 349.28 175.591C347.79 170.811 345.31 171.381 341.97 173.441C328.18 181.941 314.34 179.381 300.88 172.871C294.15 169.611 292.17 169.901 286.99 175.331C281.13 181.481 274.02 185.571 265.04 186.161C251.79 187.041 239.89 184.381 230.83 174.151C225.04 167.611 219.56 160.611 220.12 151.001C220.34 147.211 217.63 147.151 215.36 147.831C206.67 150.411 198.69 147.821 190.98 144.471C186.25 142.411 183.73 144.111 181.66 147.951C180.89 149.381 180.48 151.031 179.6 152.381C174.33 160.491 174.33 160.431 182.76 165.821C194.06 173.051 200.84 182.731 198.12 196.761C195.81 208.691 188.96 217.571 177.34 221.471C166.79 225.011 156.25 224.451 148.17 215.451C144.09 210.901 140.7 209.471 134.68 212.591C123.72 218.281 111.99 218.271 100.17 214.651C94.4404 212.901 90.5104 209.121 86.8904 204.721C83.4104 200.491 79.5804 199.031 73.5404 199.921C62.4604 201.551 51.3704 199.891 41.1104 194.721C37.8604 193.081 34.7404 191.061 30.8404 191.511L30.8704 191.471Z" fill="#E9F5FC"/>
<path d="M623.58 71.991C624.62 79.741 625.5 87.511 624.69 95.351C624.55 96.741 625.02 98.311 623.63 99.381C618.87 96.761 618.59 91.741 618.4 87.461C618.1 80.921 614.78 76.121 611.31 71.241C608.42 67.171 605.73 63.131 606.08 57.821C606.34 53.941 603.32 51.591 601.55 48.731C596.15 40.021 590 32.081 580.1 27.841C577.06 26.541 573.95 26.811 571 26.651C559.31 26.001 547.49 23.781 535.9 27.081C528.01 29.331 521.43 35.281 513.29 36.531C502.92 38.121 496.91 46.021 489.16 51.411C487.71 52.421 486.5 53.951 485.57 55.481C483.7 58.561 484.33 60.851 487.91 62.371C492.07 64.131 496.36 64.681 500.76 64.271C509.77 63.441 516.09 69.291 523.21 73.141C525.22 74.221 525.34 76.531 524.71 78.551C524.06 80.651 522.45 81.901 520.17 81.811C515.46 81.621 510.76 82.301 506.04 80.951C497.06 78.391 488.02 81.041 479.02 81.371C471.97 81.631 465 82.781 458.74 86.791C456.33 88.341 453.75 86.961 452.3 84.401C450.73 81.631 451.68 79.821 454.33 78.101C458.89 75.121 463.27 71.841 467.54 68.451C471.93 64.961 472.12 62.081 468.58 57.841C466.37 55.191 464.04 52.631 461.85 49.971C458.74 46.191 454.83 44.031 449.92 44.621C442.14 45.551 434.54 42.761 426.6 44.421C409.13 48.081 394.77 64.121 394.69 81.701C394.67 85.131 396.23 89.171 392.8 91.061C388.84 93.241 385.26 90.061 381.79 88.091C367.3 79.851 352.71 75.951 337.31 86.201C331.36 90.161 327.15 89.411 322.08 84.511C319.76 82.261 317.33 80.781 313.94 80.641C311.45 80.531 308.65 80.121 306.6 78.851C300.71 75.221 295.04 76.951 289.29 78.741C287.71 79.231 286.08 80.251 286.43 82.201C286.75 83.951 288.47 84.041 289.97 84.031C292.99 84.011 295.79 84.961 298.26 86.481C300.8 88.041 301.03 90.381 298.58 92.271C296.33 94.011 288.01 92.751 286.5 90.291C284.49 87.021 281.7 86.131 278.19 86.191C276.76 86.221 275.25 86.061 273.91 85.601C267.66 83.451 267.19 81.701 272.29 77.471C277.99 72.731 273.5 68.281 271.88 64.311C265.73 49.161 254.61 38.281 239.9 31.631C231.83 27.981 222.89 27.491 214.47 31.561C211.63 32.931 208.66 34.291 205.71 34.401C197.44 34.691 192.79 39.591 189.28 46.141C187.86 48.791 186.15 51.171 183.7 52.761C180.21 55.021 176.57 55.621 173.36 52.031C170.69 49.041 167.75 46.331 165.11 43.291C160.49 37.961 153.64 37.231 147.49 38.271C137.66 39.941 129.08 44.441 123.13 53.251C119.17 59.121 114.82 64.681 112.42 71.451C111.57 73.851 110.58 76.161 110.48 78.801C110.18 86.721 108.49 88.131 101.42 84.701C95.0498 81.611 90.6397 83.751 86.2697 87.981C81.1297 92.961 81.3797 99.851 79.8297 106.091C79.6997 106.611 79.8098 107.181 79.8098 107.731C79.8098 111.011 80.3498 114.841 76.8198 116.481C73.0998 118.201 71.3797 114.401 69.2997 112.361C59.0697 102.311 42.6798 104.061 34.3798 115.711C28.2998 124.241 24.7298 133.711 23.0598 143.781C21.8998 150.781 23.6098 158.091 25.7998 164.651C27.1998 168.831 26.0198 170.641 23.7798 173.061C23.4098 173.011 23.0898 172.871 22.8098 172.621C22.5798 170.481 20.9898 170.631 19.4798 170.661C7.54975 161.311 0.719764 149.681 0.599764 133.921C0.459764 115.391 7.28975 101.021 22.7298 90.831C32.4998 84.391 43.5098 83.261 54.7898 84.171C58.8898 84.501 60.4298 82.851 61.9498 79.301C72.9698 53.601 89.1997 32.391 113.8 17.891C140.09 2.39103 168.42 -1.36897 198.13 1.06103C201.61 1.91103 205.08 2.80103 208.57 3.61103C219.14 6.05103 229.15 10.101 239.19 14.081C245.6 20.321 254.02 23.791 260.45 30.141C270.27 39.851 281.73 48.081 286.78 61.731C287.99 65.011 289.98 64.401 292.42 63.051C296.85 60.591 299.37 56.111 303.35 53.161C316.05 43.741 330.54 43.641 345.27 45.061C349.21 45.441 353.35 45.801 356.62 48.561C359.25 50.781 360.45 49.381 362.13 47.101C365.25 42.851 367.35 37.911 371.36 34.241C388.05 18.981 407.78 11.441 430.23 11.811C443.42 12.031 456.29 14.501 467.9 21.631C473.23 24.901 478.15 28.601 482.79 32.741C484.52 34.291 486.57 35.711 488.35 33.111C491.98 27.791 497.46 24.871 502.46 21.201C522.15 6.76103 544.67 4.97103 566.71 10.731C592.88 17.571 611.75 34.821 621.18 61.051C621.48 64.811 621.59 68.601 623.59 71.981L623.58 71.991Z" fill="white"/>
<path d="M19.459 170.681C20.969 170.661 22.559 170.501 22.789 172.641C21.119 172.941 20.099 172.121 19.459 170.681Z" fill="#E9F5FC"/>
<path d="M623.409 103.801C625.019 105.571 627.169 104.961 629.059 104.821C639.129 104.071 648.729 105.091 657.159 111.341C658.999 112.701 661.809 112.401 663.129 114.711C659.219 120.031 654.289 116.801 649.769 116.151C647.679 115.851 645.669 114.711 643.729 113.751C640.819 112.321 638.809 112.141 636.289 115.191C631.949 120.451 618.929 118.471 615.569 112.521C613.399 108.681 617.319 104.321 623.419 103.791L623.409 103.801Z" fill="white"/>
</g>
</svg>
