<svg width="659" height="319" viewBox="0 0 659 319" fill="none" xmlns="http://www.w3.org/2000/svg">
<g opacity="0.9">
<path d="M658.04 181.166C659.67 190.646 659.03 200.006 656.4 209.236C656.11 209.306 655.83 209.386 655.55 209.486C652.17 206.926 648.91 208.316 645.63 209.766C631.42 216.056 617.67 215.816 604.83 206.406C600.05 202.906 598.4 202.736 595.1 207.906C592.74 211.596 590 214.766 586.41 217.206C574.5 225.316 562.38 232.436 547 227.526C543.75 226.486 541.43 227.936 540.01 231.356C532.02 250.626 510.86 257.216 494.11 244.896C487.81 240.266 483.29 240.786 477.88 244.936C476.84 245.726 475.81 246.686 474.61 247.076C466.68 249.666 459.08 254.766 450.21 251.576C443.36 249.116 437.4 250.026 430.99 253.466C419.35 259.706 407.19 259.226 395.47 253.436C385.18 248.356 377.43 240.996 375.23 228.946C374.6 225.506 373.84 221.396 368.41 221.706C356.94 222.356 346.73 218.096 337.21 212.386C333.23 209.996 331.07 210.726 328.09 213.646C322.03 219.586 314.66 223.756 306.84 226.826C293.15 232.196 279.06 230.496 265.05 228.076C263.06 227.736 260.75 226.326 259.39 228.376C258.14 230.266 258.81 232.696 259.83 234.816C263.16 241.796 263.8 249.476 265.35 256.906C266.08 260.396 264.04 261.896 260.63 260.216C257.33 258.586 255.07 255.876 253.5 252.576C251.73 248.856 250 245.016 247.08 242.106C242.55 237.586 240.19 231.976 238.03 226.176C236.8 222.856 235.54 219.536 234.19 216.266C233.53 214.686 232.47 213.216 230.65 212.966C228.35 212.656 228.06 214.826 227.43 216.226C222.28 227.696 213.43 236.166 203.5 243.046C179.71 259.556 153.33 265.526 124.81 258.876C105.99 254.486 89.19 246.006 75.87 231.556C74.3 229.856 72.57 229.056 70.39 230.086C60.13 234.966 49.29 233.746 38.59 232.796C34.63 232.446 30.5 231.796 26.81 229.646C20.28 225.856 13.42 222.746 6.15997 220.576C4.68997 216.466 3.22 212.346 1.75 208.236C3.77 208.386 4.48999 207.466 5.10999 205.466C6.59999 200.656 5.91996 195.806 6.01996 190.976C6.17996 183.086 8.36997 175.506 13.09 169.576C20.11 160.736 28.39 153.296 38.04 146.706C53.92 135.856 70.92 135.936 88.5 136.366C90.23 136.406 91.8 136.996 91.08 138.946C89.78 142.466 90.4199 146.226 88.8799 149.846C86.5499 155.286 85.24 161.186 83.79 166.966C82.89 170.536 87.37 179.256 90.05 179.826C92.53 180.356 98.15 175.036 99.19 170.876C101.61 161.116 105 151.726 108.51 142.296C113.13 129.876 118.75 118.326 130.52 111.636C141.41 105.446 153.22 102.486 166.22 102.306C182.28 102.086 194.1 111.026 206.26 118.516C220.3 127.166 228.84 141.916 239.44 154.326C241.47 156.706 243.48 160.576 247.62 158.016C251.41 155.666 253.66 152.156 251.47 147.566C250.11 144.726 250.19 141.826 249.83 138.876C248.73 129.706 253.14 121.766 255.21 113.326C259.3 96.6658 271.01 86.7058 285.87 80.1358C296.43 75.4658 307.66 77.2158 318.9 77.6158C331.96 78.0858 343.23 83.9558 355.39 86.9858C358.22 87.6958 360.92 88.7458 363.23 87.1158C365.48 85.5358 364.64 82.7058 363.99 80.3458C363.17 77.3758 362.16 74.3758 358.26 74.5958C354.07 74.8258 351.33 72.1158 348.31 70.0158C346.33 68.6358 346.18 66.5558 348.64 65.7358C356.85 62.9958 363.68 56.9658 371.76 54.7058C387.81 50.2058 403.81 45.6558 421.07 46.0658C434.58 46.3858 444.58 51.6858 454 60.0758C464.1 69.0658 470.88 80.3958 476.56 92.3958C478.97 97.4858 481.95 102.816 479.47 108.986C478.69 110.936 480.08 112.576 481.15 114.096C482.18 115.566 484.27 116.696 483.2 118.876C482.06 121.196 479.63 120.266 477.7 120.676C470.59 122.196 463.06 120.516 456.21 123.356C454.4 124.106 451.29 124.916 451.62 127.566C451.93 130.076 454.77 130.346 456.96 130.786C466.09 132.606 475.47 132.066 484.61 134.046C494.57 136.206 503.64 139.986 510.17 147.916C516.85 156.036 520.4 165.826 521.7 176.186C522.48 182.366 523.35 183.836 529.45 183.546C534.48 183.306 537.05 180.296 536.36 174.896C535.66 169.386 534.72 163.886 532.8 158.636C530.71 152.906 533.56 148.536 539.76 148.856C552.64 149.526 563.72 153.436 570.4 165.826C574.18 172.826 584.91 176.296 591.89 173.786C603.28 169.686 614.07 164.396 626.99 164.726C634.07 164.906 639.17 165.916 644.55 170.496C648.83 174.146 651.66 179.666 657.54 181.376C657.7 181.266 657.88 181.206 658.08 181.206L658.04 181.166Z" fill="#E9F5FC"/>
<path d="M6.12012 220.556C13.3801 222.726 20.2401 225.836 26.7701 229.626C30.4601 231.766 34.5901 232.416 38.5501 232.776C49.2501 233.736 60.0901 234.946 70.3501 230.066C72.5301 229.026 74.2601 229.836 75.8301 231.536C89.1501 245.986 105.95 254.466 124.77 258.856C153.29 265.506 179.67 259.536 203.46 243.026C213.38 236.136 222.23 227.676 227.39 216.206C228.02 214.806 228.31 212.636 230.61 212.946C232.43 213.196 233.49 214.666 234.15 216.246C235.51 219.516 236.76 222.836 237.99 226.156C240.14 231.956 242.51 237.566 247.04 242.086C249.96 245.006 251.68 248.846 253.46 252.556C255.04 255.856 257.29 258.576 260.59 260.196C264 261.876 266.04 260.376 265.31 256.886C263.77 249.466 263.13 241.776 259.79 234.796C258.78 232.666 258.1 230.246 259.35 228.356C260.71 226.296 263.02 227.706 265.01 228.056C279.02 230.476 293.11 232.176 306.8 226.806C314.62 223.746 321.99 219.566 328.05 213.626C331.03 210.706 333.19 209.976 337.17 212.366C346.68 218.086 356.9 222.346 368.37 221.686C373.8 221.376 374.56 225.486 375.19 228.926C377.39 240.986 385.14 248.336 395.43 253.416C407.15 259.206 419.31 259.686 430.95 253.446C437.36 250.006 443.32 249.096 450.17 251.556C459.03 254.746 466.64 249.646 474.57 247.056C475.77 246.666 476.8 245.706 477.84 244.916C483.25 240.766 487.78 240.246 494.07 244.876C510.82 257.206 531.99 250.606 539.97 231.336C541.39 227.916 543.71 226.466 546.96 227.506C562.34 232.426 574.46 225.296 586.37 217.186C589.96 214.736 592.7 211.576 595.06 207.886C598.36 202.716 600.01 202.886 604.79 206.386C617.63 215.796 631.38 216.046 645.59 209.746C648.88 208.296 652.13 206.906 655.51 209.466C654.94 219.626 647.18 225.256 640.99 231.636C634.35 238.476 624.81 239.416 616.14 241.956C610.88 241.606 605.63 241.256 600.37 240.906C596.09 240.176 591.56 239.576 587.58 241.086C577.37 244.946 568.5 241.866 560 236.646C556.34 234.396 555.68 235.686 555.26 239.196C554.04 249.166 550.6 258.086 544.02 266.036C532.7 279.716 517.96 286.566 500.84 287.876C483.94 289.166 469.34 283.316 458.07 270.156C455.8 267.506 453.52 267.106 451.55 270.736C450.4 272.856 449.01 274.896 447.49 276.776C439.06 287.206 429.27 295.416 415.04 296.156C403.24 296.576 391.96 294.666 381.56 288.746C373.37 284.086 366.67 278.166 364.08 268.616C363.65 267.036 363.19 265.066 361.21 264.826C358.98 264.556 358.55 266.756 358.05 268.186C355.21 276.256 350.88 283.456 345.1 289.666C340.54 294.576 335.45 299.006 330.6 303.656C316.38 313.576 300.01 318.086 283.25 318.116C264.28 318.156 245.89 313.536 230.89 300.466C227 297.076 223.33 293.426 219.56 289.896C218.98 287.366 216.91 286.076 215.12 284.556C212.97 280.666 210.79 276.796 208.68 272.886C206.09 268.106 204.65 267.926 201 272.126C198.32 275.206 196.84 279.156 193.56 281.866C181.09 292.166 166.96 298.356 150.68 297.906C123.66 297.156 104.04 283.996 91.1801 260.516C87.4801 253.756 86.4001 253.056 79.4201 255.666C76.0601 256.926 72.6101 257.326 69.0201 257.566C50.6601 258.806 35.0701 250.856 20.0501 242.106C12.3001 237.596 6.21008 230.646 6.08008 220.536L6.12012 220.556Z" fill="#B3DBF4"/>
<path d="M215.27 65.9762C226.47 50.7662 240.819 39.6762 258.119 32.0162C278.079 23.1762 298.52 22.1162 319.53 26.6262C323.49 27.4762 327.76 27.2962 331.2 30.1062C333.23 31.7562 334.65 29.8862 336.08 28.8262C341.18 25.0262 346.15 21.0662 351.31 17.3562C375.15 0.186161 401.97 -3.05384 429.83 2.46616C467.18 9.86616 489.24 34.7562 501.72 69.2762C503.66 74.6462 504.229 80.5762 504.859 86.3162C505.339 90.6862 506.44 92.6362 511.53 92.6262C529.79 92.5862 551.959 109.936 556.729 127.556C557.579 130.696 558.779 131.876 562.349 132.056C571.559 132.506 580.39 134.466 587.56 141.146C591.39 144.716 596.32 145.036 601.25 143.946C622.72 139.226 644.31 151.926 653.57 170.006C655.38 173.546 657.07 177.266 657.49 181.356C651.6 179.646 648.77 174.126 644.5 170.476C639.12 165.886 634.02 164.886 626.94 164.706C614.02 164.366 603.23 169.666 591.84 173.766C584.86 176.276 574.129 172.806 570.349 165.806C563.669 153.416 552.59 149.506 539.71 148.836C533.52 148.516 530.67 152.896 532.75 158.616C534.67 163.866 535.6 169.366 536.31 174.876C537 180.276 534.43 183.286 529.4 183.526C523.3 183.816 522.43 182.346 521.65 176.166C520.35 165.816 516.799 156.016 510.119 147.896C503.589 139.966 494.52 136.186 484.56 134.026C475.42 132.036 466.03 132.586 456.91 130.766C454.71 130.326 451.88 130.056 451.57 127.546C451.24 124.896 454.35 124.086 456.16 123.336C463.01 120.496 470.54 122.166 477.65 120.656C479.58 120.246 482.01 121.176 483.15 118.856C484.22 116.676 482.139 115.546 481.099 114.076C480.029 112.556 478.64 110.916 479.42 108.966C481.9 102.786 478.909 97.4562 476.509 92.3762C470.829 80.3862 464.05 69.0462 453.95 60.0562C444.53 51.6762 434.53 46.3662 421.02 46.0462C403.76 45.6462 387.76 50.1862 371.71 54.6862C363.63 56.9462 356.8 62.9762 348.59 65.7162C346.13 66.5362 346.279 68.6262 348.259 69.9962C351.269 72.0962 354.02 74.8162 358.21 74.5762C362.11 74.3562 363.12 77.3562 363.94 80.3262C364.59 82.6862 365.43 85.5062 363.18 87.0962C360.86 88.7262 358.17 87.6762 355.34 86.9662C343.18 83.9362 331.909 78.0562 318.849 77.5962C307.609 77.1962 296.39 75.4562 285.82 80.1162C270.95 86.6862 259.25 96.6462 255.16 113.306C253.09 121.746 248.68 129.686 249.78 138.856C250.14 141.816 250.06 144.706 251.42 147.546C253.61 152.136 251.36 155.646 247.57 157.996C243.43 160.556 241.42 156.686 239.39 154.306C228.79 141.896 220.26 127.146 206.21 118.496C194.05 111.006 182.23 102.056 166.17 102.286C153.17 102.466 141.36 105.426 130.47 111.616C118.7 118.306 113.09 129.856 108.46 142.276C104.95 151.706 101.56 161.096 99.1395 170.856C98.1095 175.016 92.4895 180.336 89.9995 179.806C87.3195 179.236 82.8395 170.516 83.7395 166.946C85.1995 161.166 86.5095 155.266 88.8295 149.826C90.3795 146.206 89.7295 142.456 91.0295 138.926C91.7495 136.976 90.1795 136.386 88.4495 136.346C70.8595 135.926 53.8695 135.836 37.9895 146.686C28.3395 153.276 20.0595 160.716 13.0395 169.556C8.31953 175.496 6.12952 183.066 5.96952 190.956C5.86952 195.786 6.53955 200.636 5.05955 205.446C4.43955 207.446 3.7195 208.366 1.6995 208.216C-1.0805 198.396 0.389494 188.366 0.379494 178.426C0.369494 170.886 4.54954 164.616 7.23954 157.906C9.49954 155.176 11.7595 152.446 14.0095 149.716C16.5195 149.376 17.9195 147.926 18.3095 145.456L18.5095 145.246C20.9695 144.786 22.5195 143.466 22.6995 140.836C24.0295 139.036 25.5295 137.466 27.4695 136.246C46.9395 124.096 67.5295 122.426 89.0695 129.586C96.1095 131.926 96.0596 131.976 98.4396 124.666C98.8996 123.266 99.8095 122.026 100.4 120.666C103.57 113.346 109.24 107.816 113.93 101.586C115.96 100.256 118.08 99.0461 119.99 97.5761C135.04 86.0061 152.35 83.6962 170.39 86.1262C179.73 87.3862 188.86 90.5962 196.17 96.9962C199.95 100.316 201.46 99.3762 202.62 95.1662C205.46 84.8362 209.59 75.0662 215.26 65.9662L215.27 65.9762Z" fill="white"/>
</g>
</svg>
