<svg width="24" height="20" viewBox="0 0 24 20" fill="none" xmlns="http://www.w3.org/2000/svg">
<path d="M23.4774 11.1922L14.9012 19.5309C14.5796 19.8436 14.1508 20 13.7219 20C13.2395 20 12.8107 19.8436 12.4891 19.5309C11.7923 18.9055 11.7923 17.8111 12.4891 17.1857L18.1173 11.6612H1.71524C0.750419 11.6612 0 10.9316 0 9.99349C0 9.10749 0.750419 8.32573 1.71524 8.32573H18.1173L12.4891 2.85342C11.7923 2.22801 11.7923 1.13355 12.4891 0.508143C13.1323 -0.169381 14.258 -0.169381 14.9012 0.508143L23.4774 8.8469C24.1742 9.47231 24.1742 10.5668 23.4774 11.1922Z" fill="#497B55"/>
</svg>
