<svg width="24" height="20" viewBox="0 0 24 20" fill="none" xmlns="http://www.w3.org/2000/svg">
<path d="M24 9.99349C24 10.9316 23.2496 11.6612 22.3384 11.6612H5.88275L11.5109 17.1857C12.2077 17.8111 12.2077 18.9055 11.5109 19.5309C11.1893 19.8436 10.7605 20 10.3317 20C9.84925 20 9.42043 19.8436 9.09883 19.5309L0.522613 11.1922C-0.174204 10.5668 -0.174204 9.47231 0.522613 8.8469L9.09883 0.508143C9.74204 -0.169381 10.8677 -0.169381 11.5109 0.508143C12.2077 1.13355 12.2077 2.22801 11.5109 2.85342L5.88275 8.32573H22.3384C23.2496 8.32573 24 9.10749 24 9.99349Z" fill="#497B55"/>
</svg>
