<svg width="17" height="16" viewBox="0 0 17 16" fill="none" xmlns="http://www.w3.org/2000/svg">
<path fill-rule="evenodd" clip-rule="evenodd" d="M8.16537 14.6234C6.78065 15.8125 5.48537 15.9197 3.98222 15.2111C3.482 14.9752 3.07562 14.4622 2.73165 13.9974C2.39211 13.5379 2.12725 12.9949 2.1872 12.3807C2.24519 11.792 2.32921 11.2063 2.40882 10.5621C1.57101 10.2324 0.862924 9.58328 0.472275 8.6865C0.146979 7.93862 0.125358 7.09934 0.348937 6.30575C0.600034 5.4134 1.17692 4.75397 1.97738 4.26996C2.81028 3.76629 3.70164 3.76776 4.67753 3.90977C4.59105 2.813 4.99202 1.93146 5.74678 1.24205C6.48238 0.56836 7.37424 0.270095 8.39337 0.337415C10.0041 0.444045 11.5024 1.63417 11.7259 3.88766C12.2576 3.88766 12.803 3.82624 13.3283 3.90043C14.4133 4.05375 15.201 4.66453 15.7366 5.62518C16.1459 6.35882 16.3115 7.13177 16.1248 7.94354C15.8658 9.07224 15.259 9.95771 14.1819 10.4801C14.0821 10.5282 13.9878 10.7366 14.0064 10.852C14.0728 11.2589 14.2747 11.6603 14.2644 12.0603C14.2526 12.5439 14.144 13.0515 13.9593 13.4996C13.5391 14.5168 12.7662 15.1408 11.7023 15.4976C10.8586 15.7806 10.097 15.616 9.3383 15.3379C8.93537 15.19 8.58894 14.8883 8.16488 14.6234H8.16537ZM8.11476 10.425C9.20366 10.4157 10.3392 9.3823 10.27 8.35088C10.1982 7.29244 9.41299 6.20845 8.06562 6.22762C7.0799 6.24138 6.00328 7.16616 6.03817 8.44032C6.06471 9.40883 7.09268 10.4579 8.11476 10.425Z" fill="#668DA8"/>
</svg>
