<svg width="25" height="24" viewBox="0 0 25 24" fill="none" xmlns="http://www.w3.org/2000/svg">
<path d="M13.417 24H11.7644C11.5515 23.929 11.3276 23.9401 11.11 23.9101C9.14673 23.6421 7.3459 22.9593 5.72484 21.8122C4.15582 20.7029 2.91164 19.3042 2.01832 17.6036C0.878222 15.4331 0.442213 13.1239 0.70398 10.6838C0.842747 9.38919 1.18494 8.15138 1.73213 6.97113C2.42439 5.47788 3.38551 4.18096 4.60919 3.07797C5.70672 2.08852 6.94537 1.3269 8.32437 0.798664C10.1425 0.102498 12.0214 -0.138749 13.9587 0.0756985C15.2328 0.216824 16.4557 0.544805 17.6171 1.08329C19.8027 2.0964 21.5444 3.62196 22.8225 5.66789C23.7237 7.11068 24.2921 8.67568 24.5161 10.3637C24.5539 10.6467 24.5925 10.9305 24.6304 11.2136V12.7084C24.557 12.9086 24.5823 13.1215 24.5594 13.3281C24.4207 14.603 24.0856 15.8242 23.5478 16.9855C22.5347 19.1718 21.0098 20.9134 18.9638 22.1906C17.5209 23.091 15.9558 23.6602 14.2677 23.8849C13.9847 23.9227 13.7008 23.9614 13.4178 23.9992L13.417 24ZM12.4582 19.2144C12.72 19.1891 13.078 19.1552 13.4359 19.1197C13.9177 19.0717 14.4026 19.0307 14.8685 18.8895C16.8862 18.2762 18.6082 17.196 19.9856 15.5932C20.3333 15.1887 20.5013 14.6983 20.42 14.1512C20.368 13.8019 20.1945 13.5362 19.8484 13.4172C19.5322 13.3076 19.3288 13.5047 19.1309 13.7034C19.0986 13.7357 19.0663 13.768 19.0339 13.8003C18.2865 14.5493 17.4854 15.2313 16.5787 15.784C15.4133 16.4943 14.1566 16.9012 12.7847 16.913C12.1476 16.9185 11.5192 16.8223 10.8924 16.7214C9.53859 16.5054 8.37798 15.9251 7.4547 14.8986C7.10778 14.5131 6.73721 14.152 6.37295 13.7846C6.25074 13.6616 6.11039 13.5685 5.95428 13.4968C5.61445 13.3407 5.37398 13.403 5.14769 13.7065C4.75662 14.23 4.8063 14.9837 5.25966 15.5443C5.70514 16.0954 6.18137 16.6173 6.71909 17.0809C7.38849 17.658 8.11938 18.1382 8.92834 18.4961C10.0227 18.9802 11.1707 19.208 12.4598 19.2128L12.4582 19.2144ZM9.23267 7.63341C8.80139 7.59714 8.46236 7.78399 8.21242 8.14745C7.74486 8.82548 7.73935 9.75501 8.19586 10.4441C8.72649 11.2443 9.63083 11.3129 10.2718 10.5994C10.5115 10.3329 10.5999 10.0073 10.6188 9.65962C10.6432 9.22284 10.566 8.79789 10.4422 8.38161C10.2892 7.86835 9.9202 7.64208 9.23188 7.63262L9.23267 7.63341ZM17.4752 9.33007C17.4586 8.58265 17.1756 8.01657 16.4557 7.68544C16.1695 7.55377 15.9534 7.53642 15.6822 7.69804C15.3408 7.90145 14.9947 8.08516 14.826 8.47148C14.5445 9.11561 14.5697 9.75187 14.9261 10.3558C15.1894 10.8028 15.5978 11.0638 16.1261 11.0488C16.652 11.0338 17.0123 10.7311 17.2512 10.2769C17.4066 9.98208 17.4823 9.66593 17.4759 9.32928L17.4752 9.33007Z" fill="#D1AFC2"/>
</svg>
