<svg width="1440" height="1024" viewBox="0 0 1440 1024" fill="none" xmlns="http://www.w3.org/2000/svg">
<g id="intro-clouds">
<g id="cloud4" opacity="0.9">
<path id="Vector" d="M1018.83 877.652C1013 878.862 1007.46 877.812 1002.13 875.392C999.053 873.992 996.383 874.002 993.013 875.432C986.293 878.272 979.033 879.442 971.713 879.842C969.343 879.972 966.913 879.532 964.653 880.602C963.833 880.412 963.013 880.042 962.203 880.042C954.323 880.002 946.463 880.012 938.863 877.422C937.113 876.822 936.163 878.102 935.023 879.282C932.303 882.102 930.523 885.832 926.883 887.742C911.053 896.042 892.763 885.962 892.683 868.822C892.663 865.492 891.093 864.242 887.933 864.572C885.553 864.822 883.173 865.032 880.803 865.262C873.593 863.702 867.243 859.992 860.523 857.182C854.263 853.462 851.313 847.222 848.393 841.022C847.123 838.332 846.423 835.462 847.353 832.452C850.363 832.102 852.773 833.662 855.283 834.932C863.203 838.922 871.753 840.202 880.313 838.942C884.973 838.262 887.923 839.382 890.613 842.642C893.413 846.042 896.443 848.952 900.863 850.312C909.983 853.102 919.043 853.112 927.493 848.722C932.143 846.312 934.753 847.422 937.903 850.922C944.143 857.872 952.273 858.302 960.413 855.572C969.373 852.562 974.663 845.712 976.443 836.502C978.543 825.672 973.303 818.202 964.583 812.622C958.083 808.462 958.083 808.502 962.143 802.252C962.823 801.212 963.133 799.932 963.733 798.832C965.333 795.872 967.273 794.562 970.923 796.142C976.873 798.732 983.033 800.722 989.733 798.732C991.483 798.212 993.573 798.252 993.403 801.182C992.973 808.602 997.203 814.002 1001.67 819.052C1008.66 826.942 1017.85 829.002 1028.07 828.322C1035 827.862 1040.49 824.702 1045.01 819.962C1049 815.772 1050.53 815.552 1055.73 818.062C1066.12 823.082 1076.8 825.062 1087.44 818.502C1090.02 816.912 1091.93 816.472 1093.08 820.162C1096.24 830.262 1103.01 837.412 1112.45 841.722C1122.5 846.312 1132.78 845.192 1142.73 841.022C1145.38 839.912 1146.87 840.292 1148.28 842.682C1150.8 846.942 1153.71 850.942 1157.66 854.002C1168.79 862.622 1190.32 862.252 1200.04 847.452C1202.79 843.272 1205.37 838.922 1209.93 836.132C1216.14 832.332 1215.88 832.292 1221.22 837.232C1227.96 843.462 1235.64 848.182 1245.11 848.492C1260.68 849.012 1271.71 841.162 1279.96 828.682C1281.39 826.522 1282.67 824.082 1285.34 823.672C1292.71 822.542 1297.08 817.622 1301.17 812.092C1303.58 808.842 1306.25 808.792 1309.44 811.332C1312.59 813.832 1315.46 816.892 1319.89 817.222C1329.43 817.932 1338.34 816.552 1346.12 810.322C1348.69 808.262 1351.47 806.072 1355.16 806.192C1355.97 814.062 1355.72 821.722 1351.08 828.632C1349.54 830.932 1348.26 833.402 1346.86 835.792C1343.81 838.572 1340.76 841.352 1337.71 844.142C1331.91 848.112 1325.99 851.472 1318.69 852.332C1307.71 853.632 1297.43 852.902 1288.53 845.512C1286.91 844.172 1285.49 843.612 1284.08 845.932C1283.29 847.222 1281.85 848.102 1280.94 849.342C1270.71 863.402 1252.58 868.782 1235.5 863.212C1229.49 861.252 1224.4 857.902 1219.41 854.262C1217.23 852.672 1215.64 852.312 1214.26 855.412C1209.35 866.472 1200.42 873.292 1189.66 878.062C1181.15 880.162 1172.49 880.132 1163.8 880.022C1160.35 879.972 1157.28 878.932 1154.08 877.842C1145.77 875.012 1139.18 869.792 1133.08 863.752C1132.45 862.832 1131.75 861.942 1131.21 860.972C1128.79 856.642 1125.92 854.962 1120.32 855.872C1112.96 857.062 1105.13 857.212 1097.97 853.862C1094.51 852.242 1091.88 851.852 1090.94 856.552C1090.79 857.312 1090.11 857.992 1089.62 858.672C1084.82 865.462 1078.54 870.592 1070.88 873.622C1059.81 878.012 1048.56 878.002 1037.39 873.622C1034.41 872.452 1031.27 870.902 1028.29 873.372C1025.49 875.692 1022.21 876.722 1018.84 877.672L1018.83 877.652Z" fill="#B3DBF4"/>
<path id="Vector_2" d="M847.342 832.452C847.312 832.312 847.262 832.172 847.262 832.042C847.492 826.652 847.662 821.282 841.852 818.252C843.582 816.382 844.492 814.982 843.412 811.762C841.722 806.702 840.402 801.052 841.292 795.652C842.582 787.882 845.332 780.582 850.022 773.992C856.432 765.002 869.072 763.652 876.972 771.412C878.572 772.982 879.902 775.922 882.772 774.592C885.502 773.332 885.092 770.372 885.082 767.842C885.082 767.422 885.002 766.972 885.102 766.572C886.302 761.752 886.102 756.432 890.072 752.592C893.442 749.322 896.852 747.672 901.772 750.062C907.232 752.712 908.532 751.622 908.762 745.512C908.842 743.482 909.602 741.692 910.262 739.842C912.112 734.622 915.472 730.332 918.522 725.802C923.112 719.002 929.732 715.522 937.322 714.242C942.062 713.442 947.352 714.002 950.912 718.112C952.952 720.462 955.222 722.552 957.282 724.862C959.762 727.632 962.572 727.162 965.262 725.422C967.152 724.192 968.472 722.362 969.572 720.312C972.282 715.252 975.872 711.472 982.252 711.252C984.532 711.172 986.822 710.122 989.012 709.062C995.502 705.922 1002.4 706.302 1008.63 709.112C1019.98 714.242 1028.56 722.642 1033.31 734.332C1034.55 737.392 1038.03 740.832 1033.62 744.482C1029.69 747.752 1030.05 749.102 1034.87 750.762C1035.9 751.122 1037.07 751.232 1038.17 751.212C1040.89 751.162 1043.03 751.852 1044.59 754.372C1045.76 756.272 1052.18 757.242 1053.91 755.902C1055.8 754.442 1055.62 752.632 1053.66 751.432C1051.75 750.262 1049.59 749.522 1047.26 749.542C1046.1 749.542 1044.77 749.482 1044.53 748.132C1044.26 746.622 1045.51 745.842 1046.73 745.462C1051.17 744.082 1055.55 742.742 1060.09 745.542C1061.67 746.522 1063.83 746.842 1065.76 746.922C1068.38 747.032 1070.25 748.182 1072.04 749.912C1075.95 753.692 1079.2 754.272 1083.79 751.212C1095.68 743.302 1106.94 746.322 1118.12 752.672C1120.79 754.192 1123.56 756.642 1126.61 754.962C1129.25 753.512 1128.06 750.392 1128.07 747.742C1128.13 734.172 1139.21 721.802 1152.69 718.972C1158.82 717.682 1164.68 719.842 1170.69 719.122C1174.48 718.672 1177.5 720.342 1179.89 723.252C1181.58 725.312 1183.38 727.282 1185.09 729.332C1187.82 732.602 1187.68 734.822 1184.29 737.512C1180.99 740.132 1177.61 742.662 1174.09 744.962C1172.05 746.292 1171.31 747.692 1172.53 749.832C1173.65 751.812 1175.64 752.872 1177.5 751.672C1182.33 748.572 1187.71 747.692 1193.15 747.482C1200.1 747.222 1207.07 745.182 1214 747.152C1217.64 748.192 1221.27 747.662 1224.91 747.812C1226.67 747.882 1227.91 746.912 1228.41 745.292C1228.89 743.732 1228.8 741.952 1227.25 741.122C1221.76 738.162 1216.88 733.642 1209.93 734.282C1206.54 734.592 1203.23 734.182 1200.01 732.812C1197.25 731.642 1196.76 729.872 1198.2 727.502C1198.92 726.322 1199.85 725.132 1200.97 724.362C1206.95 720.202 1211.59 714.112 1219.59 712.882C1225.88 711.912 1230.95 707.322 1237.04 705.592C1245.99 703.042 1255.1 704.762 1264.13 705.262C1266.4 705.392 1268.8 705.172 1271.15 706.182C1278.79 709.452 1283.54 715.582 1287.7 722.302C1289.07 724.512 1291.4 726.322 1291.2 729.312C1290.93 733.402 1293 736.522 1295.23 739.662C1297.9 743.432 1300.47 747.132 1300.7 752.182C1300.85 755.482 1301.06 759.352 1304.74 761.382C1304.69 762.522 1304.63 763.662 1304.58 764.792C1299.88 765.202 1296.85 768.572 1298.52 771.532C1301.11 776.122 1311.16 777.652 1314.51 773.592C1316.45 771.232 1318.01 771.382 1320.25 772.482C1321.75 773.222 1323.3 774.102 1324.91 774.332C1328.39 774.832 1332.2 777.322 1335.22 773.222C1347.95 780.532 1353.64 792.092 1355.13 806.192C1351.44 806.062 1348.67 808.262 1346.09 810.322C1338.31 816.552 1329.4 817.932 1319.86 817.222C1315.43 816.892 1312.56 813.832 1309.41 811.332C1306.22 808.802 1303.55 808.842 1301.14 812.092C1297.05 817.622 1292.67 822.542 1285.31 823.672C1282.63 824.082 1281.35 826.512 1279.93 828.682C1271.69 841.172 1260.65 849.012 1245.08 848.492C1235.61 848.172 1227.93 843.462 1221.19 837.232C1215.85 832.292 1216.1 832.332 1209.9 836.132C1205.34 838.922 1202.76 843.282 1200.01 847.452C1190.29 862.252 1168.76 862.612 1157.63 854.002C1153.68 850.942 1150.77 846.942 1148.25 842.682C1146.84 840.292 1145.35 839.922 1142.7 841.022C1132.75 845.192 1122.47 846.302 1112.42 841.722C1102.98 837.412 1096.2 830.262 1093.05 820.162C1091.9 816.472 1089.99 816.912 1087.41 818.502C1076.77 825.062 1066.09 823.092 1055.7 818.062C1050.51 815.552 1048.98 815.772 1044.98 819.962C1040.46 824.702 1034.97 827.862 1028.04 828.322C1017.82 829.002 1008.63 826.942 1001.64 819.052C997.172 814.002 992.952 808.602 993.372 801.182C993.542 798.252 991.452 798.212 989.702 798.732C982.992 800.722 976.842 798.732 970.892 796.142C967.242 794.552 965.302 795.862 963.702 798.832C963.102 799.942 962.792 801.212 962.112 802.252C958.052 808.512 958.042 808.462 964.552 812.622C973.272 818.202 978.512 825.672 976.412 836.502C974.632 845.712 969.342 852.562 960.382 855.572C952.242 858.302 944.112 857.872 937.872 850.922C934.722 847.412 932.112 846.312 927.462 848.722C919.002 853.112 909.952 853.102 900.832 850.312C896.412 848.962 893.382 846.042 890.582 842.642C887.892 839.382 884.942 838.252 880.282 838.942C871.732 840.202 863.172 838.922 855.252 834.932C852.742 833.672 850.332 832.102 847.322 832.452H847.342Z" fill="#E9F5FC"/>
<path id="Vector_3" d="M1304.74 740.252C1305.55 746.232 1306.22 752.222 1305.6 758.272C1305.49 759.342 1305.85 760.562 1304.78 761.382C1301.1 759.362 1300.89 755.482 1300.74 752.182C1300.51 747.132 1297.94 743.432 1295.27 739.662C1293.04 736.522 1290.97 733.402 1291.24 729.312C1291.44 726.322 1289.11 724.502 1287.74 722.302C1283.58 715.582 1278.83 709.452 1271.19 706.182C1268.84 705.172 1266.44 705.392 1264.17 705.262C1255.15 704.762 1246.03 703.042 1237.08 705.592C1230.99 707.332 1225.91 711.922 1219.63 712.882C1211.63 714.112 1206.99 720.212 1201.01 724.362C1199.89 725.142 1198.96 726.322 1198.24 727.502C1196.8 729.872 1197.28 731.642 1200.05 732.812C1203.26 734.172 1206.57 734.592 1209.97 734.282C1216.92 733.642 1221.8 738.162 1227.29 741.122C1228.84 741.962 1228.93 743.742 1228.45 745.292C1227.95 746.912 1226.71 747.882 1224.95 747.812C1221.31 747.662 1217.68 748.192 1214.04 747.152C1207.11 745.182 1200.14 747.222 1193.19 747.482C1187.75 747.682 1182.37 748.562 1177.54 751.672C1175.68 752.862 1173.69 751.802 1172.57 749.832C1171.36 747.692 1172.09 746.302 1174.13 744.962C1177.65 742.662 1181.03 740.132 1184.33 737.512C1187.72 734.822 1187.86 732.602 1185.13 729.332C1183.42 727.282 1181.63 725.312 1179.93 723.252C1177.53 720.332 1174.51 718.672 1170.73 719.122C1164.72 719.832 1158.86 717.682 1152.73 718.972C1139.25 721.792 1128.17 734.172 1128.11 747.742C1128.1 750.392 1129.29 753.512 1126.65 754.962C1123.59 756.642 1120.83 754.192 1118.16 752.672C1106.98 746.312 1095.72 743.302 1083.83 751.212C1079.24 754.262 1075.99 753.692 1072.08 749.912C1070.29 748.182 1068.42 747.032 1065.8 746.922C1063.88 746.842 1061.72 746.522 1060.13 745.542C1055.59 742.742 1051.21 744.082 1046.77 745.462C1045.55 745.842 1044.29 746.622 1044.57 748.132C1044.81 749.482 1046.14 749.552 1047.3 749.542C1049.63 749.522 1051.79 750.262 1053.7 751.432C1055.66 752.632 1055.84 754.442 1053.95 755.902C1052.22 757.242 1045.79 756.272 1044.63 754.372C1043.08 751.852 1040.93 751.162 1038.21 751.212C1037.11 751.232 1035.94 751.112 1034.91 750.762C1030.09 749.102 1029.73 747.752 1033.66 744.482C1038.06 740.822 1034.59 737.392 1033.35 734.332C1028.6 722.642 1020.02 714.242 1008.67 709.112C1002.44 706.302 995.542 705.922 989.052 709.062C986.862 710.122 984.562 711.172 982.292 711.252C975.912 711.482 972.322 715.252 969.612 720.312C968.512 722.362 967.192 724.192 965.302 725.422C962.612 727.162 959.802 727.632 957.322 724.862C955.262 722.562 952.992 720.462 950.952 718.112C947.382 713.992 942.092 713.432 937.362 714.242C929.772 715.532 923.152 719.002 918.562 725.802C915.502 730.332 912.152 734.622 910.302 739.842C909.642 741.692 908.882 743.482 908.802 745.512C908.572 751.622 907.272 752.712 901.812 750.062C896.892 747.672 893.492 749.322 890.112 752.592C886.152 756.432 886.342 761.752 885.142 766.572C885.042 766.972 885.122 767.412 885.122 767.842C885.122 770.372 885.542 773.332 882.812 774.592C879.942 775.922 878.612 772.982 877.012 771.412C869.112 763.652 856.472 765.002 850.062 773.992C845.372 780.582 842.622 787.882 841.332 795.652C840.432 801.052 841.762 806.702 843.452 811.762C844.532 814.982 843.622 816.382 841.892 818.252C841.602 818.222 841.352 818.102 841.142 817.912C840.962 816.262 839.742 816.382 838.572 816.402C829.362 809.192 824.092 800.212 824.002 788.052C823.892 773.752 829.162 762.662 841.082 754.802C848.622 749.832 857.122 748.962 865.822 749.662C868.982 749.922 870.172 748.642 871.352 745.902C879.862 726.072 892.382 709.702 911.362 698.512C931.652 686.542 953.512 683.652 976.442 685.522C979.132 686.182 981.802 686.862 984.502 687.492C992.652 689.382 1000.38 692.502 1008.13 695.572C1013.07 700.382 1019.58 703.062 1024.53 707.972C1032.11 715.462 1040.95 721.812 1044.85 732.352C1045.79 734.882 1047.32 734.412 1049.2 733.372C1052.62 731.472 1054.56 728.012 1057.63 725.742C1067.43 718.472 1078.61 718.402 1089.98 719.492C1093.02 719.782 1096.22 720.062 1098.74 722.192C1100.77 723.902 1101.7 722.822 1102.99 721.062C1105.4 717.782 1107.02 713.972 1110.11 711.142C1122.99 699.362 1138.21 693.542 1155.54 693.832C1165.72 694.002 1175.65 695.912 1184.61 701.412C1188.73 703.932 1192.52 706.792 1196.1 709.982C1197.44 711.182 1199.02 712.272 1200.39 710.272C1203.19 706.172 1207.42 703.912 1211.28 701.082C1226.48 689.942 1243.85 688.562 1260.86 693.002C1281.06 698.282 1295.62 711.592 1302.89 731.832C1303.12 734.732 1303.2 737.662 1304.75 740.272L1304.74 740.252Z" fill="white"/>
<path id="Vector_4" d="M838.541 816.402C839.701 816.382 840.931 816.262 841.111 817.912C839.821 818.142 839.041 817.512 838.541 816.402Z" fill="#E9F5FC"/>
<path id="Vector_5" d="M1304.62 764.792C1305.87 766.162 1307.52 765.692 1308.98 765.582C1316.75 765.002 1324.16 765.792 1330.66 770.612C1332.08 771.662 1334.25 771.432 1335.27 773.212C1332.26 777.322 1328.45 774.832 1324.96 774.322C1323.35 774.092 1321.8 773.212 1320.3 772.472C1318.06 771.372 1316.5 771.222 1314.56 773.582C1311.21 777.642 1301.16 776.112 1298.57 771.522C1296.9 768.562 1299.92 765.202 1304.63 764.782L1304.62 764.792Z" fill="white"/>
</g>
<g id="cloud3" opacity="0.9">
<path id="Vector_6" d="M244.833 943.652C239.003 944.862 233.463 943.812 228.133 941.392C225.053 939.992 222.383 940.002 219.013 941.432C212.293 944.272 205.033 945.442 197.713 945.842C195.343 945.972 192.913 945.532 190.653 946.602C189.833 946.412 189.013 946.042 188.203 946.042C180.323 946.002 172.463 946.012 164.863 943.422C163.113 942.822 162.163 944.102 161.023 945.282C158.303 948.102 156.523 951.832 152.883 953.742C137.053 962.042 118.763 951.962 118.683 934.822C118.663 931.492 117.093 930.242 113.933 930.572C111.553 930.822 109.173 931.032 106.803 931.262C99.5926 929.702 93.2426 925.992 86.5226 923.182C80.2626 919.462 77.3126 913.222 74.3926 907.022C73.1226 904.332 72.4226 901.462 73.3526 898.452C76.3626 898.102 78.7726 899.662 81.2826 900.932C89.2026 904.922 97.7526 906.202 106.313 904.942C110.973 904.262 113.923 905.382 116.613 908.642C119.413 912.042 122.443 914.952 126.863 916.312C135.983 919.102 145.043 919.112 153.493 914.722C158.143 912.312 160.753 913.422 163.903 916.922C170.143 923.872 178.273 924.302 186.413 921.572C195.373 918.562 200.663 911.712 202.443 902.502C204.543 891.672 199.303 884.202 190.583 878.622C184.083 874.462 184.083 874.502 188.143 868.252C188.823 867.212 189.133 865.932 189.733 864.832C191.333 861.872 193.273 860.562 196.923 862.142C202.873 864.732 209.033 866.722 215.733 864.732C217.483 864.212 219.573 864.252 219.403 867.182C218.973 874.602 223.203 880.002 227.673 885.052C234.663 892.942 243.853 895.002 254.073 894.322C261.003 893.862 266.493 890.702 271.013 885.962C275.003 881.772 276.533 881.552 281.733 884.062C292.123 889.082 302.803 891.062 313.443 884.502C316.023 882.912 317.933 882.472 319.083 886.162C322.243 896.262 329.013 903.412 338.453 907.722C348.503 912.312 358.783 911.192 368.733 907.022C371.383 905.912 372.873 906.292 374.283 908.682C376.803 912.942 379.713 916.942 383.663 920.002C394.793 928.622 416.323 928.252 426.043 913.452C428.793 909.272 431.373 904.922 435.933 902.132C442.143 898.332 441.883 898.292 447.223 903.232C453.963 909.462 461.643 914.182 471.113 914.492C486.683 915.012 497.713 907.162 505.963 894.682C507.393 892.522 508.673 890.082 511.343 889.672C518.713 888.542 523.083 883.622 527.173 878.092C529.583 874.842 532.253 874.792 535.443 877.332C538.593 879.832 541.463 882.892 545.893 883.222C555.433 883.932 564.343 882.552 572.123 876.322C574.693 874.262 577.473 872.072 581.163 872.192C581.973 880.062 581.723 887.722 577.083 894.632C575.543 896.932 574.263 899.402 572.863 901.792C569.813 904.572 566.763 907.352 563.713 910.142C557.913 914.112 551.993 917.472 544.693 918.332C533.713 919.632 523.433 918.902 514.533 911.512C512.913 910.172 511.493 909.612 510.083 911.932C509.293 913.222 507.853 914.102 506.943 915.342C496.713 929.402 478.583 934.782 461.503 929.212C455.493 927.252 450.403 923.902 445.413 920.262C443.233 918.672 441.643 918.312 440.263 921.412C435.353 932.472 426.423 939.292 415.663 944.062C407.153 946.162 398.493 946.132 389.803 946.022C386.353 945.972 383.283 944.932 380.083 943.842C371.773 941.012 365.183 935.792 359.083 929.752C358.453 928.832 357.753 927.942 357.213 926.972C354.793 922.642 351.923 920.962 346.323 921.872C338.963 923.062 331.133 923.212 323.973 919.862C320.513 918.242 317.883 917.852 316.943 922.552C316.793 923.312 316.113 923.992 315.623 924.672C310.823 931.462 304.543 936.592 296.883 939.622C285.813 944.012 274.563 944.002 263.393 939.622C260.413 938.452 257.273 936.902 254.293 939.372C251.493 941.692 248.213 942.722 244.843 943.672L244.833 943.652Z" fill="#B3DBF4"/>
<path id="Vector_7" d="M73.342 898.452C73.312 898.312 73.262 898.172 73.262 898.042C73.492 892.652 73.662 887.282 67.852 884.252C69.582 882.382 70.492 880.982 69.412 877.762C67.722 872.702 66.402 867.052 67.292 861.652C68.582 853.882 71.332 846.582 76.022 839.992C82.432 831.002 95.072 829.652 102.972 837.412C104.572 838.982 105.902 841.922 108.772 840.592C111.502 839.332 111.092 836.372 111.082 833.842C111.082 833.422 111.002 832.972 111.102 832.572C112.302 827.752 112.102 822.432 116.072 818.592C119.442 815.322 122.852 813.672 127.772 816.062C133.232 818.712 134.532 817.622 134.762 811.512C134.842 809.482 135.602 807.692 136.262 805.842C138.112 800.622 141.472 796.332 144.522 791.802C149.112 785.002 155.732 781.522 163.322 780.242C168.062 779.442 173.352 780.002 176.912 784.112C178.952 786.462 181.222 788.552 183.282 790.862C185.762 793.632 188.572 793.162 191.262 791.422C193.152 790.192 194.472 788.362 195.572 786.312C198.282 781.252 201.872 777.472 208.252 777.252C210.532 777.172 212.822 776.122 215.012 775.062C221.502 771.922 228.402 772.302 234.632 775.112C245.982 780.242 254.562 788.642 259.312 800.332C260.552 803.392 264.032 806.832 259.622 810.482C255.692 813.752 256.052 815.102 260.872 816.762C261.902 817.122 263.072 817.232 264.172 817.212C266.892 817.162 269.032 817.852 270.592 820.372C271.762 822.272 278.182 823.242 279.912 821.902C281.802 820.442 281.622 818.632 279.662 817.432C277.752 816.262 275.592 815.522 273.262 815.542C272.102 815.542 270.772 815.482 270.532 814.132C270.262 812.622 271.512 811.842 272.732 811.462C277.172 810.082 281.552 808.742 286.092 811.542C287.672 812.522 289.832 812.842 291.762 812.922C294.382 813.032 296.252 814.182 298.042 815.912C301.952 819.692 305.202 820.272 309.792 817.212C321.682 809.302 332.942 812.322 344.122 818.672C346.792 820.192 349.562 822.642 352.612 820.962C355.252 819.512 354.062 816.392 354.072 813.742C354.132 800.172 365.212 787.802 378.692 784.972C384.822 783.682 390.682 785.842 396.692 785.122C400.482 784.672 403.502 786.342 405.892 789.252C407.582 791.312 409.382 793.282 411.092 795.332C413.822 798.602 413.682 800.822 410.292 803.512C406.992 806.132 403.612 808.662 400.092 810.962C398.052 812.292 397.312 813.692 398.532 815.832C399.652 817.812 401.642 818.872 403.502 817.672C408.332 814.572 413.712 813.692 419.152 813.482C426.102 813.222 433.072 811.182 440.002 813.152C443.642 814.192 447.272 813.662 450.912 813.812C452.672 813.882 453.912 812.912 454.412 811.292C454.892 809.732 454.802 807.952 453.252 807.122C447.762 804.162 442.882 799.642 435.932 800.282C432.542 800.592 429.232 800.182 426.012 798.812C423.252 797.642 422.762 795.872 424.202 793.502C424.922 792.322 425.852 791.132 426.972 790.362C432.952 786.202 437.592 780.112 445.592 778.882C451.882 777.912 456.952 773.322 463.042 771.592C471.992 769.042 481.102 770.762 490.132 771.262C492.402 771.392 494.802 771.172 497.152 772.182C504.792 775.452 509.542 781.582 513.702 788.302C515.072 790.512 517.402 792.322 517.202 795.312C516.932 799.402 519.002 802.522 521.232 805.662C523.902 809.432 526.472 813.132 526.702 818.182C526.852 821.482 527.062 825.352 530.742 827.382C530.692 828.522 530.632 829.662 530.582 830.792C525.882 831.202 522.852 834.572 524.522 837.532C527.112 842.122 537.162 843.652 540.512 839.592C542.452 837.232 544.012 837.382 546.252 838.482C547.752 839.222 549.302 840.102 550.912 840.332C554.392 840.832 558.202 843.322 561.222 839.222C573.952 846.532 579.642 858.092 581.132 872.192C577.442 872.062 574.672 874.262 572.092 876.322C564.312 882.552 555.402 883.932 545.862 883.222C541.432 882.892 538.562 879.832 535.412 877.332C532.222 874.802 529.552 874.842 527.142 878.092C523.052 883.622 518.672 888.542 511.312 889.672C508.632 890.082 507.352 892.512 505.932 894.682C497.692 907.172 486.652 915.012 471.082 914.492C461.612 914.172 453.932 909.462 447.192 903.232C441.852 898.292 442.102 898.332 435.902 902.132C431.342 904.922 428.762 909.282 426.012 913.452C416.292 928.252 394.762 928.612 383.632 920.002C379.682 916.942 376.772 912.942 374.252 908.682C372.842 906.292 371.352 905.922 368.702 907.022C358.752 911.192 348.472 912.302 338.422 907.722C328.982 903.412 322.202 896.262 319.052 886.162C317.902 882.472 315.992 882.912 313.412 884.502C302.772 891.062 292.092 889.092 281.702 884.062C276.512 881.552 274.982 881.772 270.982 885.962C266.462 890.702 260.972 893.862 254.042 894.322C243.822 895.002 234.632 892.942 227.642 885.052C223.172 880.002 218.952 874.602 219.372 867.182C219.542 864.252 217.452 864.212 215.702 864.732C208.992 866.722 202.842 864.732 196.892 862.142C193.242 860.552 191.302 861.862 189.702 864.832C189.102 865.942 188.792 867.212 188.112 868.252C184.052 874.512 184.042 874.462 190.552 878.622C199.272 884.202 204.512 891.672 202.412 902.502C200.632 911.712 195.342 918.562 186.382 921.572C178.242 924.302 170.112 923.872 163.872 916.922C160.722 913.412 158.112 912.312 153.462 914.722C145.002 919.112 135.952 919.102 126.832 916.312C122.412 914.962 119.382 912.042 116.582 908.642C113.892 905.382 110.942 904.252 106.282 904.942C97.732 906.202 89.172 904.922 81.252 900.932C78.742 899.672 76.332 898.102 73.322 898.452H73.342Z" fill="#E9F5FC"/>
<path id="Vector_8" d="M530.742 806.252C531.552 812.232 532.222 818.222 531.602 824.272C531.492 825.342 531.852 826.562 530.782 827.382C527.102 825.362 526.892 821.482 526.742 818.182C526.512 813.132 523.942 809.432 521.272 805.662C519.042 802.522 516.972 799.402 517.242 795.312C517.442 792.322 515.112 790.502 513.742 788.302C509.582 781.582 504.832 775.452 497.192 772.182C494.842 771.172 492.442 771.392 490.172 771.262C481.152 770.762 472.032 769.042 463.082 771.592C456.992 773.332 451.912 777.922 445.632 778.882C437.632 780.112 432.992 786.212 427.012 790.362C425.892 791.142 424.962 792.322 424.242 793.502C422.802 795.872 423.282 797.642 426.052 798.812C429.262 800.172 432.572 800.592 435.972 800.282C442.922 799.642 447.802 804.162 453.292 807.122C454.842 807.962 454.932 809.742 454.452 811.292C453.952 812.912 452.712 813.882 450.952 813.812C447.312 813.662 443.682 814.192 440.042 813.152C433.112 811.182 426.142 813.222 419.192 813.482C413.752 813.682 408.372 814.562 403.542 817.672C401.682 818.862 399.692 817.802 398.572 815.832C397.362 813.692 398.092 812.302 400.132 810.962C403.652 808.662 407.032 806.132 410.332 803.512C413.722 800.822 413.862 798.602 411.132 795.332C409.422 793.282 407.632 791.312 405.932 789.252C403.532 786.332 400.512 784.672 396.732 785.122C390.722 785.832 384.862 783.682 378.732 784.972C365.252 787.792 354.172 800.172 354.112 813.742C354.102 816.392 355.292 819.512 352.652 820.962C349.592 822.642 346.832 820.192 344.162 818.672C332.982 812.312 321.722 809.302 309.832 817.212C305.242 820.262 301.992 819.692 298.082 815.912C296.292 814.182 294.422 813.032 291.802 812.922C289.882 812.842 287.722 812.522 286.132 811.542C281.592 808.742 277.212 810.082 272.772 811.462C271.552 811.842 270.292 812.622 270.572 814.132C270.812 815.482 272.142 815.552 273.302 815.542C275.632 815.522 277.792 816.262 279.702 817.432C281.662 818.632 281.842 820.442 279.952 821.902C278.222 823.242 271.792 822.272 270.632 820.372C269.082 817.852 266.932 817.162 264.212 817.212C263.112 817.232 261.942 817.112 260.912 816.762C256.092 815.102 255.732 813.752 259.662 810.482C264.062 806.822 260.592 803.392 259.352 800.332C254.602 788.642 246.022 780.242 234.672 775.112C228.442 772.302 221.542 771.922 215.052 775.062C212.862 776.122 210.562 777.172 208.292 777.252C201.912 777.482 198.322 781.252 195.612 786.312C194.512 788.362 193.192 790.192 191.302 791.422C188.612 793.162 185.802 793.632 183.322 790.862C181.262 788.562 178.992 786.462 176.952 784.112C173.382 779.992 168.092 779.432 163.362 780.242C155.772 781.532 149.152 785.002 144.562 791.802C141.502 796.332 138.152 800.622 136.302 805.842C135.642 807.692 134.882 809.482 134.802 811.512C134.572 817.622 133.272 818.712 127.812 816.062C122.892 813.672 119.492 815.322 116.112 818.592C112.152 822.432 112.342 827.752 111.142 832.572C111.042 832.972 111.122 833.412 111.122 833.842C111.122 836.372 111.542 839.332 108.812 840.592C105.942 841.922 104.612 838.982 103.012 837.412C95.1117 829.652 82.4717 831.002 76.0617 839.992C71.3717 846.582 68.6217 853.882 67.3317 861.652C66.4317 867.052 67.7617 872.702 69.4517 877.762C70.5317 880.982 69.6217 882.382 67.8917 884.252C67.6017 884.222 67.3517 884.102 67.1417 883.912C66.9617 882.262 65.7417 882.382 64.5717 882.402C55.3617 875.192 50.0917 866.212 50.0017 854.052C49.8917 839.752 55.1617 828.662 67.0817 820.802C74.6217 815.832 83.1217 814.962 91.8217 815.662C94.9817 815.922 96.1717 814.642 97.3517 811.902C105.862 792.072 118.382 775.702 137.362 764.512C157.652 752.542 179.512 749.652 202.442 751.522C205.132 752.182 207.802 752.862 210.502 753.492C218.652 755.382 226.382 758.502 234.132 761.572C239.072 766.382 245.582 769.062 250.532 773.972C258.112 781.462 266.952 787.812 270.852 798.352C271.792 800.882 273.322 800.412 275.202 799.372C278.622 797.472 280.562 794.012 283.632 791.742C293.432 784.472 304.612 784.402 315.982 785.492C319.022 785.782 322.222 786.062 324.742 788.192C326.772 789.902 327.702 788.822 328.992 787.062C331.402 783.782 333.022 779.972 336.112 777.142C348.992 765.362 364.212 759.542 381.542 759.832C391.722 760.002 401.652 761.912 410.612 767.412C414.732 769.932 418.522 772.792 422.102 775.982C423.442 777.182 425.022 778.272 426.392 776.272C429.192 772.172 433.422 769.912 437.282 767.082C452.482 755.942 469.852 754.562 486.862 759.002C507.062 764.282 521.622 777.592 528.892 797.832C529.122 800.732 529.202 803.662 530.752 806.272L530.742 806.252Z" fill="white"/>
<path id="Vector_9" d="M64.541 882.402C65.701 882.382 66.931 882.262 67.111 883.912C65.821 884.142 65.041 883.512 64.541 882.402Z" fill="#E9F5FC"/>
<path id="Vector_10" d="M530.612 830.802C531.862 832.172 533.512 831.702 534.972 831.592C542.742 831.012 550.152 831.802 556.652 836.622C558.072 837.672 560.242 837.442 561.262 839.222C558.252 843.332 554.442 840.842 550.952 840.332C549.342 840.102 547.792 839.222 546.292 838.482C544.052 837.382 542.492 837.232 540.552 839.592C537.202 843.652 527.152 842.122 524.562 837.532C522.892 834.572 525.912 831.212 530.622 830.792L530.612 830.802Z" fill="white"/>
</g>
<g id="cloud1" opacity="0.9">
<path id="Vector_11" d="M300.079 314.041C292.519 315.611 285.349 314.251 278.449 311.111C274.459 309.291 270.989 309.311 266.639 311.161C257.939 314.851 248.529 316.361 239.029 316.871C235.969 317.041 232.819 316.471 229.879 317.861C228.819 317.611 227.759 317.141 226.699 317.141C216.499 317.091 206.299 317.101 196.459 313.751C194.189 312.981 192.959 314.641 191.479 316.171C187.959 319.821 185.649 324.651 180.929 327.131C160.419 337.891 136.719 324.821 136.619 302.611C136.599 298.301 134.549 296.681 130.469 297.101C127.389 297.421 124.309 297.701 121.229 298.001C111.889 295.971 103.649 291.171 94.9492 287.531C86.8392 282.711 83.0191 274.631 79.2291 266.591C77.5891 263.111 76.6791 259.381 77.8791 255.481C81.7791 255.031 84.8991 257.051 88.1491 258.691C98.4091 263.861 109.499 265.511 120.579 263.891C126.619 263.001 130.439 264.461 133.929 268.691C137.549 273.091 141.479 276.871 147.209 278.621C159.029 282.241 170.759 282.251 181.719 276.561C187.739 273.441 191.129 274.871 195.209 279.421C203.299 288.431 213.829 288.981 224.379 285.441C235.989 281.541 242.839 272.661 245.159 260.731C247.879 246.701 241.089 237.021 229.799 229.791C221.369 224.401 221.379 224.461 226.639 216.351C227.519 215.001 227.929 213.351 228.699 211.921C230.769 208.081 233.289 206.381 238.019 208.441C245.729 211.791 253.709 214.381 262.399 211.801C264.669 211.131 267.379 211.181 267.159 214.971C266.609 224.581 272.079 231.581 277.869 238.121C286.929 248.351 298.839 251.011 312.079 250.131C321.059 249.541 328.169 245.441 334.029 239.301C339.199 233.871 341.179 233.591 347.919 236.841C361.379 243.351 375.219 245.911 389.009 237.411C392.349 235.351 394.829 234.771 396.319 239.561C400.409 252.651 409.189 261.911 421.419 267.491C434.439 273.441 447.759 271.991 460.659 266.591C464.089 265.151 466.029 265.641 467.849 268.731C471.109 274.251 474.879 279.431 479.999 283.391C494.419 294.551 522.319 294.081 534.919 274.911C538.479 269.491 541.819 263.851 547.729 260.231C555.769 255.301 555.439 255.251 562.359 261.651C571.089 269.731 581.039 275.841 593.319 276.251C613.489 276.921 627.789 266.761 638.479 250.581C640.329 247.781 641.989 244.621 645.459 244.091C655.009 242.631 660.679 236.251 665.979 229.081C669.099 224.871 672.569 224.811 676.699 228.091C680.779 231.331 684.499 235.301 690.239 235.721C702.599 236.641 714.149 234.851 724.229 226.781C727.559 224.111 731.159 221.271 735.939 221.431C736.999 231.631 736.659 241.551 730.649 250.501C728.649 253.481 726.989 256.681 725.179 259.781C721.229 263.381 717.279 266.991 713.329 270.601C705.809 275.751 698.139 280.101 688.679 281.211C674.449 282.891 661.129 281.951 649.589 272.371C647.489 270.631 645.649 269.911 643.819 272.921C642.799 274.601 640.929 275.731 639.759 277.341C626.499 295.551 603.009 302.521 580.869 295.321C573.079 292.781 566.489 288.441 560.019 283.721C557.189 281.661 555.129 281.201 553.349 285.211C546.989 299.541 535.419 308.381 521.469 314.551C510.439 317.271 499.219 317.241 487.959 317.091C483.489 317.031 479.509 315.681 475.359 314.271C464.599 310.601 456.049 303.841 448.149 296.011C447.339 294.811 446.429 293.671 445.729 292.411C442.589 286.801 438.869 284.631 431.609 285.791C422.069 287.331 411.929 287.531 402.639 283.181C398.159 281.081 394.749 280.571 393.519 286.671C393.319 287.661 392.439 288.531 391.809 289.421C385.589 298.221 377.459 304.861 367.529 308.801C353.189 314.491 338.609 314.471 324.129 308.801C320.269 307.281 316.199 305.281 312.339 308.471C308.709 311.481 304.459 312.811 300.089 314.041H300.079Z" fill="#B3DBF4"/>
<path id="Vector_12" d="M77.8704 255.471C77.8404 255.291 77.7604 255.111 77.7704 254.941C78.0604 247.951 78.2904 241.001 70.7604 237.081C73.0004 234.651 74.1804 232.841 72.7804 228.671C70.5904 222.111 68.8804 214.801 70.0404 207.801C71.7104 197.731 75.2704 188.271 81.3604 179.731C89.6604 168.081 106.05 166.331 116.28 176.381C118.36 178.421 120.08 182.231 123.8 180.501C127.33 178.861 126.8 175.041 126.79 171.751C126.79 171.201 126.68 170.631 126.81 170.111C128.36 163.861 128.11 156.971 133.25 152.001C137.62 147.761 142.03 145.631 148.4 148.721C155.48 152.151 157.16 150.741 157.46 142.821C157.56 140.191 158.55 137.871 159.4 135.471C161.79 128.701 166.15 123.141 170.11 117.271C176.05 108.461 184.63 103.951 194.47 102.291C200.61 101.251 207.46 101.981 212.09 107.311C214.73 110.351 217.67 113.071 220.34 116.051C223.55 119.641 227.19 119.041 230.68 116.781C233.13 115.191 234.84 112.811 236.26 110.161C239.77 103.601 244.42 98.7112 252.69 98.4212C255.64 98.3112 258.61 96.9612 261.45 95.5812C269.87 91.5112 278.81 92.0012 286.88 95.6512C301.59 102.301 312.71 113.181 318.86 128.331C320.47 132.301 324.97 136.751 319.27 141.491C314.17 145.721 314.64 147.481 320.89 149.621C322.23 150.081 323.74 150.231 325.17 150.211C328.69 150.151 331.47 151.041 333.48 154.311C334.99 156.771 343.32 158.031 345.56 156.291C348.01 154.401 347.77 152.061 345.24 150.501C342.77 148.981 339.96 148.031 336.95 148.051C335.45 148.061 333.73 147.971 333.41 146.221C333.06 144.271 334.68 143.251 336.27 142.761C342.02 140.971 347.7 139.241 353.58 142.871C355.63 144.141 358.43 144.551 360.92 144.661C364.31 144.811 366.74 146.291 369.06 148.531C374.13 153.431 378.34 154.181 384.29 150.221C399.69 139.971 414.29 143.881 428.77 152.111C432.24 154.081 435.81 157.261 439.78 155.081C443.2 153.201 441.65 149.151 441.67 145.721C441.75 128.141 456.11 112.101 473.58 108.441C481.53 106.771 489.12 109.561 496.9 108.641C501.81 108.061 505.72 110.211 508.83 113.991C511.02 116.661 513.35 119.211 515.56 121.861C519.1 126.101 518.91 128.981 514.52 132.471C510.25 135.861 505.87 139.141 501.31 142.121C498.66 143.851 497.71 145.651 499.28 148.421C500.73 150.981 503.31 152.351 505.72 150.811C511.97 146.791 518.95 145.651 526 145.391C535 145.051 544.04 142.411 553.02 144.971C557.74 146.311 562.44 145.641 567.15 145.831C569.43 145.921 571.04 144.671 571.69 142.571C572.31 140.551 572.19 138.241 570.19 137.161C563.08 133.321 556.75 127.461 547.74 128.291C543.34 128.701 539.05 128.161 534.89 126.391C531.31 124.871 530.68 122.581 532.55 119.501C533.48 117.971 534.69 116.431 536.14 115.431C543.89 110.041 549.9 102.141 560.27 100.551C568.42 99.3012 574.99 93.3512 582.88 91.1012C594.47 87.8012 606.29 90.0212 617.98 90.6712C620.92 90.8312 624.03 90.5612 627.08 91.8612C636.98 96.1012 643.13 104.041 648.53 112.751C650.3 115.611 653.32 117.961 653.06 121.841C652.71 127.141 655.4 131.191 658.29 135.261C661.75 140.141 665.08 144.941 665.38 151.481C665.58 155.751 665.85 160.771 670.61 163.401C670.54 164.871 670.47 166.351 670.4 167.821C664.3 168.361 660.39 172.721 662.55 176.551C665.91 182.501 678.93 184.481 683.27 179.221C685.79 176.171 687.8 176.351 690.71 177.781C692.66 178.741 694.66 179.881 696.75 180.181C701.27 180.831 706.2 184.061 710.11 178.741C726.6 188.221 733.98 203.191 735.9 221.461C731.12 221.301 727.52 224.141 724.19 226.811C714.11 234.881 702.57 236.671 690.2 235.751C684.46 235.321 680.74 231.361 676.66 228.121C672.53 224.841 669.06 224.901 665.94 229.111C660.64 236.271 654.97 242.661 645.42 244.121C641.95 244.651 640.29 247.811 638.44 250.611C627.76 266.791 613.45 276.951 593.28 276.281C581.01 275.871 571.05 269.761 562.32 261.681C555.4 255.281 555.73 255.331 547.69 260.261C541.78 263.881 538.43 269.521 534.88 274.941C522.28 294.121 494.39 294.591 479.96 283.421C474.84 279.461 471.07 274.281 467.81 268.761C465.98 265.671 464.05 265.181 460.62 266.621C447.72 272.021 434.4 273.471 421.38 267.521C409.15 261.941 400.37 252.681 396.28 239.591C394.79 234.811 392.31 235.381 388.97 237.441C375.18 245.941 361.34 243.381 347.88 236.871C341.15 233.611 339.17 233.901 333.99 239.331C328.13 245.481 321.02 249.571 312.04 250.161C298.79 251.041 286.89 248.381 277.83 238.151C272.04 231.611 266.56 224.611 267.12 215.001C267.34 211.211 264.63 211.151 262.36 211.831C253.67 214.411 245.69 211.821 237.98 208.471C233.25 206.411 230.73 208.111 228.66 211.951C227.89 213.381 227.48 215.031 226.6 216.381C221.33 224.491 221.33 224.431 229.76 229.821C241.06 237.051 247.84 246.731 245.12 260.761C242.81 272.691 235.96 281.571 224.34 285.471C213.79 289.011 203.25 288.451 195.17 279.451C191.09 274.901 187.7 273.471 181.68 276.591C170.72 282.281 158.99 282.271 147.17 278.651C141.44 276.901 137.51 273.121 133.89 268.721C130.41 264.491 126.58 263.031 120.54 263.921C109.46 265.551 98.3704 263.891 88.1104 258.721C84.8604 257.081 81.7404 255.061 77.8404 255.511L77.8704 255.471Z" fill="#E9F5FC"/>
<path id="Vector_13" d="M670.58 135.991C671.62 143.741 672.5 151.511 671.69 159.351C671.55 160.741 672.02 162.311 670.63 163.381C665.87 160.761 665.59 155.741 665.4 151.461C665.1 144.921 661.78 140.121 658.31 135.241C655.42 131.171 652.73 127.131 653.08 121.821C653.34 117.941 650.32 115.591 648.55 112.731C643.15 104.021 637 96.081 627.1 91.841C624.06 90.541 620.95 90.811 618 90.651C606.31 90.001 594.49 87.781 582.9 91.081C575.01 93.331 568.43 99.281 560.29 100.531C549.92 102.121 543.91 110.021 536.16 115.411C534.71 116.421 533.5 117.951 532.57 119.481C530.7 122.561 531.33 124.851 534.91 126.371C539.07 128.131 543.36 128.681 547.76 128.271C556.77 127.441 563.09 133.291 570.21 137.141C572.22 138.221 572.34 140.531 571.71 142.551C571.06 144.651 569.45 145.901 567.17 145.811C562.46 145.621 557.76 146.301 553.04 144.951C544.06 142.391 535.02 145.041 526.02 145.371C518.97 145.631 512 146.781 505.74 150.791C503.33 152.341 500.75 150.961 499.3 148.401C497.73 145.631 498.68 143.821 501.33 142.101C505.89 139.121 510.27 135.841 514.54 132.451C518.93 128.961 519.12 126.081 515.58 121.841C513.37 119.191 511.04 116.631 508.85 113.971C505.74 110.191 501.83 108.031 496.92 108.621C489.14 109.551 481.54 106.761 473.6 108.421C456.13 112.081 441.77 128.121 441.69 145.701C441.67 149.131 443.23 153.171 439.8 155.061C435.84 157.241 432.26 154.061 428.79 152.091C414.3 143.851 399.71 139.951 384.31 150.201C378.36 154.161 374.15 153.411 369.08 148.511C366.76 146.261 364.33 144.781 360.94 144.641C358.45 144.531 355.65 144.121 353.6 142.851C347.71 139.221 342.04 140.951 336.29 142.741C334.71 143.231 333.08 144.251 333.43 146.201C333.75 147.951 335.47 148.041 336.97 148.031C339.99 148.011 342.79 148.961 345.26 150.481C347.8 152.041 348.03 154.381 345.58 156.271C343.33 158.011 335.01 156.751 333.5 154.291C331.49 151.021 328.7 150.131 325.19 150.191C323.76 150.221 322.25 150.061 320.91 149.601C314.66 147.451 314.19 145.701 319.29 141.471C324.99 136.731 320.5 132.281 318.88 128.311C312.73 113.161 301.61 102.281 286.9 95.631C278.83 91.981 269.89 91.491 261.47 95.561C258.63 96.931 255.66 98.291 252.71 98.401C244.44 98.691 239.79 103.591 236.28 110.141C234.86 112.791 233.15 115.171 230.7 116.761C227.21 119.021 223.57 119.621 220.36 116.031C217.69 113.041 214.75 110.331 212.11 107.291C207.49 101.961 200.64 101.231 194.49 102.271C184.66 103.941 176.08 108.441 170.13 117.251C166.17 123.121 161.82 128.681 159.42 135.451C158.57 137.851 157.58 140.161 157.48 142.801C157.18 150.721 155.49 152.131 148.42 148.701C142.05 145.611 137.64 147.751 133.27 151.981C128.13 156.961 128.38 163.851 126.83 170.091C126.7 170.611 126.81 171.181 126.81 171.731C126.81 175.011 127.35 178.841 123.82 180.481C120.1 182.201 118.38 178.401 116.3 176.361C106.07 166.311 89.6798 168.061 81.3798 179.711C75.2998 188.241 71.7298 197.711 70.0598 207.781C68.8998 214.781 70.6098 222.091 72.7998 228.651C74.1998 232.831 73.0198 234.641 70.7798 237.061C70.4098 237.011 70.0898 236.871 69.8098 236.621C69.5798 234.481 67.9898 234.631 66.4798 234.661C54.5498 225.311 47.7198 213.681 47.5998 197.921C47.4598 179.391 54.2898 165.021 69.7298 154.831C79.4998 148.391 90.5098 147.261 101.79 148.171C105.89 148.501 107.43 146.851 108.95 143.301C119.97 117.601 136.2 96.391 160.8 81.891C187.09 66.391 215.42 62.631 245.13 65.061C248.61 65.911 252.08 66.801 255.57 67.611C266.14 70.051 276.15 74.101 286.19 78.081C292.6 84.321 301.02 87.791 307.45 94.141C317.27 103.851 328.73 112.081 333.78 125.731C334.99 129.011 336.98 128.401 339.42 127.051C343.85 124.591 346.37 120.111 350.35 117.161C363.05 107.741 377.54 107.641 392.27 109.061C396.21 109.441 400.35 109.801 403.62 112.561C406.25 114.781 407.45 113.381 409.13 111.101C412.25 106.851 414.35 101.911 418.36 98.241C435.05 82.981 454.78 75.441 477.23 75.811C490.42 76.031 503.29 78.501 514.9 85.631C520.23 88.901 525.15 92.601 529.79 96.741C531.52 98.291 533.57 99.711 535.35 97.111C538.98 91.791 544.46 88.871 549.46 85.201C569.15 70.761 591.67 68.971 613.71 74.731C639.88 81.571 658.75 98.821 668.18 125.051C668.48 128.811 668.59 132.601 670.59 135.981L670.58 135.991Z" fill="white"/>
<path id="Vector_14" d="M66.459 234.681C67.969 234.661 69.559 234.501 69.789 236.641C68.119 236.941 67.099 236.121 66.459 234.681Z" fill="#E9F5FC"/>
<path id="Vector_15" d="M670.409 167.801C672.019 169.571 674.169 168.961 676.059 168.821C686.129 168.071 695.729 169.091 704.159 175.341C705.999 176.701 708.809 176.401 710.129 178.711C706.219 184.031 701.289 180.801 696.769 180.151C694.679 179.851 692.669 178.711 690.729 177.751C687.819 176.321 685.809 176.141 683.289 179.191C678.949 184.451 665.929 182.471 662.569 176.521C660.399 172.681 664.319 168.321 670.419 167.791L670.409 167.801Z" fill="white"/>
</g>
<g id="cloud2" opacity="0.9">
<path id="Vector_16" d="M1434.04 291.166C1435.67 300.646 1435.03 310.006 1432.4 319.236C1432.11 319.306 1431.83 319.386 1431.55 319.486C1428.17 316.926 1424.91 318.316 1421.63 319.766C1407.42 326.056 1393.67 325.816 1380.83 316.406C1376.05 312.906 1374.4 312.736 1371.1 317.906C1368.74 321.596 1366 324.766 1362.41 327.206C1350.5 335.316 1338.38 342.436 1323 337.526C1319.75 336.486 1317.43 337.936 1316.01 341.356C1308.02 360.626 1286.86 367.216 1270.11 354.896C1263.81 350.266 1259.29 350.786 1253.88 354.936C1252.84 355.726 1251.81 356.686 1250.61 357.076C1242.68 359.666 1235.08 364.766 1226.21 361.576C1219.36 359.116 1213.4 360.026 1206.99 363.466C1195.35 369.706 1183.19 369.226 1171.47 363.436C1161.18 358.356 1153.43 350.996 1151.23 338.946C1150.6 335.506 1149.84 331.396 1144.41 331.706C1132.94 332.356 1122.73 328.096 1113.21 322.386C1109.23 319.996 1107.07 320.726 1104.09 323.646C1098.03 329.586 1090.66 333.756 1082.84 336.826C1069.15 342.196 1055.06 340.496 1041.05 338.076C1039.06 337.736 1036.75 336.326 1035.39 338.376C1034.14 340.266 1034.81 342.696 1035.83 344.816C1039.16 351.796 1039.8 359.476 1041.35 366.906C1042.08 370.396 1040.04 371.896 1036.63 370.216C1033.33 368.586 1031.07 365.876 1029.5 362.576C1027.73 358.856 1026 355.016 1023.08 352.106C1018.55 347.586 1016.19 341.976 1014.03 336.176C1012.8 332.856 1011.54 329.536 1010.19 326.266C1009.53 324.686 1008.47 323.216 1006.65 322.966C1004.35 322.656 1004.06 324.826 1003.43 326.226C998.28 337.696 989.43 346.166 979.5 353.046C955.71 369.556 929.33 375.526 900.81 368.876C881.99 364.486 865.19 356.006 851.87 341.556C850.3 339.856 848.57 339.056 846.39 340.086C836.13 344.966 825.29 343.746 814.59 342.796C810.63 342.446 806.5 341.796 802.81 339.646C796.28 335.856 789.42 332.746 782.16 330.576C780.69 326.466 779.22 322.346 777.75 318.236C779.77 318.386 780.49 317.466 781.11 315.466C782.6 310.656 781.92 305.806 782.02 300.976C782.18 293.086 784.37 285.506 789.09 279.576C796.11 270.736 804.39 263.296 814.04 256.706C829.92 245.856 846.92 245.936 864.5 246.366C866.23 246.406 867.8 246.996 867.08 248.946C865.78 252.466 866.42 256.226 864.88 259.846C862.55 265.286 861.24 271.186 859.79 276.966C858.89 280.536 863.37 289.256 866.05 289.826C868.53 290.356 874.15 285.036 875.19 280.876C877.61 271.116 881 261.726 884.51 252.296C889.13 239.876 894.75 228.326 906.52 221.636C917.41 215.446 929.22 212.486 942.22 212.306C958.28 212.086 970.1 221.026 982.26 228.516C996.3 237.166 1004.84 251.916 1015.44 264.326C1017.47 266.706 1019.48 270.576 1023.62 268.016C1027.41 265.666 1029.66 262.156 1027.47 257.566C1026.11 254.726 1026.19 251.826 1025.83 248.876C1024.73 239.706 1029.14 231.766 1031.21 223.326C1035.3 206.666 1047.01 196.706 1061.87 190.136C1072.43 185.466 1083.66 187.216 1094.9 187.616C1107.96 188.086 1119.23 193.956 1131.39 196.986C1134.22 197.696 1136.92 198.746 1139.23 197.116C1141.48 195.536 1140.64 192.706 1139.99 190.346C1139.17 187.376 1138.16 184.376 1134.26 184.596C1130.07 184.826 1127.33 182.116 1124.31 180.016C1122.33 178.636 1122.18 176.556 1124.64 175.736C1132.85 172.996 1139.68 166.966 1147.76 164.706C1163.81 160.206 1179.81 155.656 1197.07 156.066C1210.58 156.386 1220.58 161.686 1230 170.076C1240.1 179.066 1246.88 190.396 1252.56 202.396C1254.97 207.486 1257.95 212.816 1255.47 218.986C1254.69 220.936 1256.08 222.576 1257.15 224.096C1258.18 225.566 1260.27 226.696 1259.2 228.876C1258.06 231.196 1255.63 230.266 1253.7 230.676C1246.59 232.196 1239.06 230.516 1232.21 233.356C1230.4 234.106 1227.29 234.916 1227.62 237.566C1227.93 240.076 1230.77 240.346 1232.96 240.786C1242.09 242.606 1251.47 242.066 1260.61 244.046C1270.57 246.206 1279.64 249.986 1286.17 257.916C1292.85 266.036 1296.4 275.826 1297.7 286.186C1298.48 292.366 1299.35 293.836 1305.45 293.546C1310.48 293.306 1313.05 290.296 1312.36 284.896C1311.66 279.386 1310.72 273.886 1308.8 268.636C1306.71 262.906 1309.56 258.536 1315.76 258.856C1328.64 259.526 1339.72 263.436 1346.4 275.826C1350.18 282.826 1360.91 286.296 1367.89 283.786C1379.28 279.686 1390.07 274.396 1402.99 274.726C1410.07 274.906 1415.17 275.916 1420.55 280.496C1424.83 284.146 1427.66 289.666 1433.54 291.376C1433.7 291.266 1433.88 291.206 1434.08 291.206L1434.04 291.166Z" fill="#E9F5FC"/>
<path id="Vector_17" d="M782.12 330.556C789.38 332.726 796.24 335.836 802.77 339.626C806.46 341.766 810.59 342.416 814.55 342.776C825.25 343.736 836.09 344.946 846.35 340.066C848.53 339.026 850.26 339.836 851.83 341.536C865.15 355.986 881.95 364.466 900.77 368.856C929.29 375.506 955.67 369.536 979.46 353.026C989.38 346.136 998.23 337.676 1003.39 326.206C1004.02 324.806 1004.31 322.636 1006.61 322.946C1008.43 323.196 1009.49 324.666 1010.15 326.246C1011.51 329.516 1012.76 332.836 1013.99 336.156C1016.14 341.956 1018.51 347.566 1023.04 352.086C1025.96 355.006 1027.68 358.846 1029.46 362.556C1031.04 365.856 1033.29 368.576 1036.59 370.196C1040 371.876 1042.04 370.376 1041.31 366.886C1039.77 359.466 1039.13 351.776 1035.79 344.796C1034.78 342.666 1034.1 340.246 1035.35 338.356C1036.71 336.296 1039.02 337.706 1041.01 338.056C1055.02 340.476 1069.11 342.176 1082.8 336.806C1090.62 333.746 1097.99 329.566 1104.05 323.626C1107.03 320.706 1109.19 319.976 1113.17 322.366C1122.68 328.086 1132.9 332.346 1144.37 331.686C1149.8 331.376 1150.56 335.486 1151.19 338.926C1153.39 350.986 1161.14 358.336 1171.43 363.416C1183.15 369.206 1195.31 369.686 1206.95 363.446C1213.36 360.006 1219.32 359.096 1226.17 361.556C1235.03 364.746 1242.64 359.646 1250.57 357.056C1251.77 356.666 1252.8 355.706 1253.84 354.916C1259.25 350.766 1263.78 350.246 1270.07 354.876C1286.82 367.206 1307.99 360.606 1315.97 341.336C1317.39 337.916 1319.71 336.466 1322.96 337.506C1338.34 342.426 1350.46 335.296 1362.37 327.186C1365.96 324.736 1368.7 321.576 1371.06 317.886C1374.36 312.716 1376.01 312.886 1380.79 316.386C1393.63 325.796 1407.38 326.046 1421.59 319.746C1424.88 318.296 1428.13 316.906 1431.51 319.466C1430.94 329.626 1423.18 335.256 1416.99 341.636C1410.35 348.476 1400.81 349.416 1392.14 351.956C1386.88 351.606 1381.63 351.256 1376.37 350.906C1372.09 350.176 1367.56 349.576 1363.58 351.086C1353.37 354.946 1344.5 351.866 1336 346.646C1332.34 344.396 1331.68 345.686 1331.26 349.196C1330.04 359.166 1326.6 368.086 1320.02 376.036C1308.7 389.716 1293.96 396.566 1276.84 397.876C1259.94 399.166 1245.34 393.316 1234.07 380.156C1231.8 377.506 1229.52 377.106 1227.55 380.736C1226.4 382.856 1225.01 384.896 1223.49 386.776C1215.06 397.206 1205.27 405.416 1191.04 406.156C1179.24 406.576 1167.96 404.666 1157.56 398.746C1149.37 394.086 1142.67 388.166 1140.08 378.616C1139.65 377.036 1139.19 375.066 1137.21 374.826C1134.98 374.556 1134.55 376.756 1134.05 378.186C1131.21 386.256 1126.88 393.456 1121.1 399.666C1116.54 404.576 1111.45 409.006 1106.6 413.656C1092.38 423.576 1076.01 428.086 1059.25 428.116C1040.28 428.156 1021.89 423.536 1006.89 410.466C1003 407.076 999.33 403.426 995.56 399.896C994.98 397.366 992.91 396.076 991.12 394.556C988.97 390.666 986.79 386.796 984.68 382.886C982.09 378.106 980.65 377.926 977 382.126C974.32 385.206 972.84 389.156 969.56 391.866C957.09 402.166 942.96 408.356 926.68 407.906C899.66 407.156 880.04 393.996 867.18 370.516C863.48 363.756 862.4 363.056 855.42 365.666C852.06 366.926 848.61 367.326 845.02 367.566C826.66 368.806 811.07 360.856 796.05 352.106C788.3 347.596 782.21 340.646 782.08 330.536L782.12 330.556Z" fill="#B3DBF4"/>
<path id="Vector_18" d="M991.27 175.976C1002.47 160.766 1016.82 149.676 1034.12 142.016C1054.08 133.176 1074.52 132.116 1095.53 136.626C1099.49 137.476 1103.76 137.296 1107.2 140.106C1109.23 141.756 1110.65 139.886 1112.08 138.826C1117.18 135.026 1122.15 131.066 1127.31 127.356C1151.15 110.186 1177.97 106.946 1205.83 112.466C1243.18 119.866 1265.24 144.756 1277.72 179.276C1279.66 184.646 1280.23 190.576 1280.86 196.316C1281.34 200.686 1282.44 202.636 1287.53 202.626C1305.79 202.586 1327.96 219.936 1332.73 237.556C1333.58 240.696 1334.78 241.876 1338.35 242.056C1347.56 242.506 1356.39 244.466 1363.56 251.146C1367.39 254.716 1372.32 255.036 1377.25 253.946C1398.72 249.226 1420.31 261.926 1429.57 280.006C1431.38 283.546 1433.07 287.266 1433.49 291.356C1427.6 289.646 1424.77 284.126 1420.5 280.476C1415.12 275.886 1410.02 274.886 1402.94 274.706C1390.02 274.366 1379.23 279.666 1367.84 283.766C1360.86 286.276 1350.13 282.806 1346.35 275.806C1339.67 263.416 1328.59 259.506 1315.71 258.836C1309.52 258.516 1306.67 262.896 1308.75 268.616C1310.67 273.866 1311.6 279.366 1312.31 284.876C1313 290.276 1310.43 293.286 1305.4 293.526C1299.3 293.816 1298.43 292.346 1297.65 286.166C1296.35 275.816 1292.8 266.016 1286.12 257.896C1279.59 249.966 1270.52 246.186 1260.56 244.026C1251.42 242.036 1242.03 242.586 1232.91 240.766C1230.71 240.326 1227.88 240.056 1227.57 237.546C1227.24 234.896 1230.35 234.086 1232.16 233.336C1239.01 230.496 1246.54 232.166 1253.65 230.656C1255.58 230.246 1258.01 231.176 1259.15 228.856C1260.22 226.676 1258.14 225.546 1257.1 224.076C1256.03 222.556 1254.64 220.916 1255.42 218.966C1257.9 212.786 1254.91 207.456 1252.51 202.376C1246.83 190.386 1240.05 179.046 1229.95 170.056C1220.53 161.676 1210.53 156.366 1197.02 156.046C1179.76 155.646 1163.76 160.186 1147.71 164.686C1139.63 166.946 1132.8 172.976 1124.59 175.716C1122.13 176.536 1122.28 178.626 1124.26 179.996C1127.27 182.096 1130.02 184.816 1134.21 184.576C1138.11 184.356 1139.12 187.356 1139.94 190.326C1140.59 192.686 1141.43 195.506 1139.18 197.096C1136.86 198.726 1134.17 197.676 1131.34 196.966C1119.18 193.936 1107.91 188.056 1094.85 187.596C1083.61 187.196 1072.39 185.456 1061.82 190.116C1046.95 196.686 1035.25 206.646 1031.16 223.306C1029.09 231.746 1024.68 239.686 1025.78 248.856C1026.14 251.816 1026.06 254.706 1027.42 257.546C1029.61 262.136 1027.36 265.646 1023.57 267.996C1019.43 270.556 1017.42 266.686 1015.39 264.306C1004.79 251.896 996.26 237.146 982.21 228.496C970.05 221.006 958.23 212.056 942.17 212.286C929.17 212.466 917.36 215.426 906.47 221.616C894.7 228.306 889.09 239.856 884.46 252.276C880.95 261.706 877.56 271.096 875.14 280.856C874.11 285.016 868.49 290.336 866 289.806C863.32 289.236 858.84 280.516 859.74 276.946C861.2 271.166 862.51 265.266 864.83 259.826C866.38 256.206 865.73 252.456 867.03 248.926C867.75 246.976 866.18 246.386 864.45 246.346C846.86 245.926 829.87 245.836 813.99 256.686C804.34 263.276 796.06 270.716 789.04 279.556C784.32 285.496 782.13 293.066 781.97 300.956C781.87 305.786 782.54 310.636 781.06 315.446C780.44 317.446 779.72 318.366 777.7 318.216C774.92 308.396 776.389 298.366 776.379 288.426C776.369 280.886 780.55 274.616 783.24 267.906C785.5 265.176 787.759 262.446 790.009 259.716C792.519 259.376 793.92 257.926 794.31 255.456L794.509 255.246C796.969 254.786 798.52 253.466 798.7 250.836C800.03 249.036 801.53 247.466 803.47 246.246C822.94 234.096 843.529 232.426 865.069 239.586C872.109 241.926 872.06 241.976 874.44 234.666C874.9 233.266 875.81 232.026 876.4 230.666C879.57 223.346 885.24 217.816 889.93 211.586C891.96 210.256 894.08 209.046 895.99 207.576C911.04 196.006 928.35 193.696 946.39 196.126C955.73 197.386 964.86 200.596 972.17 206.996C975.95 210.316 977.46 209.376 978.62 205.166C981.46 194.836 985.59 185.066 991.26 175.966L991.27 175.976Z" fill="white"/>
</g>
</g>
</svg>
