<svg width="3634" height="1026" viewBox="0 0 3634 1026" fill="none" xmlns="http://www.w3.org/2000/svg">
<g clip-path="url(#clip0_938_4564)">
<path d="M3605.81 751.332C3586.88 705.318 3574.58 657.014 3568.02 607.689C3559.85 546.249 3484.47 462.715 3404.74 462.715C3347.16 462.715 3157.45 380.636 3132.01 363.616C3099.35 341.785 3084.37 303.105 3045.15 291.145C3008.41 279.943 2968.38 293.605 2931.65 296.266C2900.73 298.51 2867.8 295.462 2837.76 291.207C2823.12 289.134 2812.8 282.481 2796.99 282.759C2781.8 283.022 2767.38 287.989 2752.68 287.865C2714 287.571 2720.08 247.668 2692.5 233.712C2668.16 221.397 2629.37 236.668 2602 228.638C2573.58 220.298 2546.69 214.016 2516.92 209.994C2487.28 206.002 2458.84 201.917 2430.07 196.131C2391.39 188.364 2348.41 185.749 2312.78 201.159C2281.28 214.79 2258.86 224.77 2223.69 220.437C2196.76 217.111 2132.75 207.797 2109.96 227.462L2141.14 304.729C2133.89 323.219 2150.67 364.405 2153.45 384.612C2157.94 417.212 2163.63 450.771 2159.3 483.958C2154.36 521.726 2145.75 560.669 2130.51 595.466C2111.68 638.432 2091.78 680.624 2093.24 728.758C2094.84 781.843 2129.1 823.524 2184.94 832.266C2295.36 849.58 2411.66 821.591 2522.2 817.011C2610.6 813.344 2698.34 801.307 2786.75 796.773C2889.32 791.513 2991.67 789.996 3094.38 789.996C3210.98 789.996 3328.39 791.203 3441.89 820.213C3508.65 837.279 3564.44 858.646 3633.37 848.93C3635.52 821.064 3616.52 777.356 3605.8 751.332H3605.81Z" fill="#C69471"/>
<path d="M3601.51 785.108C3558.95 726.577 3555.38 661.191 3476.47 640.366C3452.29 633.991 3427.35 638.943 3404.71 628.53C3380.36 617.328 3378.24 601.144 3362.59 582.206C3348.3 564.94 3250.18 481.669 3240.75 524.016C3177.56 523.227 3243.38 409.971 3154.06 440.76C3162.04 452.952 3163.54 493.505 3138.74 483.262C3125.78 477.909 3133.5 441.008 3121.85 437.31C3086 425.938 3119.33 530.437 3082.29 534.166C3080.17 487.316 3070.06 443.391 3072.29 396.031C3073.28 374.958 3082.18 352.167 3062.45 335.999C3044.27 321.084 3027.9 338.908 3010.72 325.369C3002.82 344.772 2990.85 374.138 2966.17 365.597C2945.94 358.588 2950.25 334.622 2946.88 315.808C2938.05 266.514 2914.37 244.744 2863.46 251.134C2864.85 257.633 2861.11 267.303 2862.51 273.801C2818.67 287.741 2838.36 270.366 2829.3 237.859C2823.96 218.705 2803.16 205.352 2782.49 227.818C2767.32 244.296 2772.04 280.021 2773.03 302.115C2773.71 317.293 2777.53 331.496 2773.26 346.241C2770.6 355.401 2759.27 362.147 2756.55 375.762C2745.59 430.363 2796.99 482.798 2768.43 537.415C2748.49 575.553 2741.02 554.666 2726.15 533.964C2715.98 519.792 2684.56 496.011 2699.97 476.284C2685.27 448.636 2680.1 442.416 2681.84 413.143C2683.37 387.382 2686.68 358.433 2687.93 331.79C2689.19 304.931 2691.07 271.31 2680.89 247.173C2672.48 227.214 2644.33 211.216 2656.97 187.745C2630.28 201.84 2629.73 252.326 2628.52 281.073C2627.73 299.81 2629.08 317.618 2625.38 335.163C2621.25 354.797 2606.44 366.309 2601.18 382.446C2583.21 437.496 2641.66 575.925 2594.05 616.276C2576.88 603.357 2589.11 586.755 2587.86 568.514C2586.5 548.849 2582.73 541.375 2573.01 524.635C2564.24 509.518 2552.59 496.816 2547.31 480.477C2541.06 461.122 2547.73 451.885 2546.51 433.984C2544.36 402.715 2541.14 235.941 2500.8 247.746C2499.89 267.334 2503.26 289.459 2500.4 308.845C2497.29 329.965 2486.32 347.433 2484.7 368.97C2483.06 390.584 2511.03 468.966 2475.79 469.894C2473.12 411.812 2456.04 364.87 2443.61 308.428C2439.81 309.944 2434.55 309.851 2431.34 311.042C2427.48 292.352 2424.96 244.713 2399.54 273.445C2385.88 288.871 2396.83 327.737 2401 344.539C2407.39 370.331 2409.6 386.562 2401 412.168C2394.13 432.653 2393.62 448.032 2390.2 473.02C2386.9 497.141 2377.42 520.705 2382.23 548.168C2384.46 560.824 2408.35 607.534 2384.81 615.208C2356.04 624.6 2352.48 497.589 2353.22 477.151C2353.89 459.188 2360.4 442.199 2359.63 422.952C2358.99 407.14 2350.93 390.615 2350.96 375.7C2351.02 341.863 2367.69 323.714 2355.73 287.788C2350.44 271.882 2338.34 212.145 2327.58 203.171C2306.64 185.687 2300.85 228.019 2300.08 247.019C2299.12 270.83 2324.6 396.541 2293.05 383.467C2280.07 378.083 2270.15 331.435 2259.66 318.701C2251.19 308.412 2245.85 313.054 2237.79 297.907C2232.2 287.401 2228.38 268.912 2225.43 257.679C2221.51 258.313 2216.93 259.567 2213.16 261.3C2205.85 281.491 2216.59 302.595 2208.93 324.209C2200.84 347.03 2188.03 350.945 2190.82 382.446C2193.52 413.05 2216.76 476.161 2190.8 501.164C2164.25 489.529 2179.66 455.505 2178.38 433.272C2176.5 400.796 2155.9 390.584 2146.97 362.178C2139.09 337.097 2136.76 310.16 2137.73 284.399C2138.57 262.305 2142.82 216.956 2109.99 227.416C2108.43 235.461 2109.74 254.09 2105.75 260.789C2100.48 269.654 2090.95 268.014 2085.28 275.085C2071.33 292.491 2069.18 296.158 2066.44 322.337C2062.17 363.199 2061.36 408.733 2053.3 450.09C2039.66 520.117 1972.62 565.234 1918.7 599.644C1865.56 633.574 1798.6 637.101 1750.05 677.515C1702.53 717.061 1704.81 774.617 1677.44 825.397C1651.43 873.639 1592.76 870.931 1553 903.253H3700.87C3703.66 903.222 3640.83 839.121 3601.53 785.061L3601.51 785.108Z" fill="#E8AB80"/>
<path d="M2170.98 393.646C2145.39 341.289 2149.8 293.449 2140.75 237.084C2138.07 220.436 2126.47 213.876 2115.75 228.636L2120.44 226.95C2133.77 251.21 2131.02 284.939 2129.86 313.191C2129.1 331.356 2125.34 348.885 2125.14 367.297C2125.08 372.511 2123.28 382.847 2125.14 387.581C2128.23 395.426 2132.21 392.037 2136.08 397.731C2149.23 417.148 2152.54 453.399 2151.36 478.882C2150.71 492.915 2149.31 507.103 2151.8 521.152C2152.71 526.304 2158.88 554.262 2164.58 556.274C2164.58 556.274 2167.11 558.254 2167.04 558.177C2166.06 530.605 2182.31 508.836 2183.61 481.327C2184.21 468.284 2182.77 452.27 2183.51 439.985C2184.47 423.848 2178.25 408.469 2171.01 393.646H2170.98Z" fill="#B68665"/>
<path d="M2251.67 429.851C2249.7 408.407 2246.27 387.087 2244.27 365.596C2242.34 344.739 2245.05 327.627 2240.4 308.519C2237.56 296.822 2236.71 260.648 2223.6 259.07L2222.04 260.757C2216.07 276.012 2225.63 298.571 2228.63 314.863C2232.54 336.09 2229.26 354.487 2228.29 375.745C2227.16 400.516 2236.12 415.339 2244.35 436.149C2250.23 450.986 2242.72 479.486 2251.74 490.966C2260.97 476.515 2253.18 446.499 2251.67 429.851Z" fill="#B68665"/>
<path d="M2295.53 471.688C2295.53 443.281 2309.11 379.211 2281.46 367.282L2278.34 365.596C2277.49 382.878 2282.34 401.383 2281.46 419.702C2280.32 443.792 2279.9 464.911 2279.9 489.017C2279.9 516.603 2281.59 544.19 2283.1 571.406C2283.88 585.315 2281.45 614.867 2290.5 624.119C2297.55 602.443 2291.4 573.247 2292.4 550.271C2293.56 524.169 2295.53 498.254 2295.53 471.688Z" fill="#B68665"/>
<path d="M2368.82 580.164C2367.42 566.393 2358.71 553.32 2358.05 539.75C2356.69 512.04 2358.75 485.474 2361.7 458.027C2363.03 445.634 2363.22 427.887 2362.74 414.628C2362.23 400.749 2354.2 388.758 2354.89 374.044C2356.19 346.597 2362.15 318.809 2359.53 291.284C2358.37 279.03 2339 186.089 2325.22 203.279V201.592C2312.42 221.69 2334.15 256.534 2339.33 277.684C2346.12 305.41 2337.39 332.486 2336.16 360.537C2334.84 390.476 2343.97 414.426 2343.97 443.762C2343.97 475.742 2343.68 507.94 2342.41 539.395C2341.36 565.218 2353.76 617.173 2376.27 629.999C2377.42 617.39 2370.07 592.712 2368.8 580.179L2368.82 580.164Z" fill="#B68665"/>
<path d="M2416.17 267.255C2415.28 266.512 2416.55 264.841 2415.7 264.377C2401.93 279.54 2420.63 307.792 2422.18 325.043C2424.11 346.611 2424.33 372.914 2429.96 393.646C2432.73 385.322 2434.12 345.327 2431.66 312.433L2438.1 311.861C2432.17 291.082 2424.44 266.961 2416.17 267.255Z" fill="#B68665"/>
<path d="M2475.37 443.374C2474.13 420.847 2475.31 391.202 2470.63 368.969C2467.06 351.981 2461.2 311.691 2442.46 311.475L2438.1 311.861C2441.33 323.172 2444.02 333.491 2445.99 338.319C2463.61 381.904 2461.77 415.37 2454.93 461.956C2450.86 489.744 2454.27 514.283 2456.57 541.514C2457.65 554.325 2459.51 566.192 2461.26 578.631C2462.96 590.622 2459.62 602.01 2461.49 613.923C2477.63 605.94 2468.86 546.527 2469.04 527.852C2469.32 499.352 2476.88 470.868 2475.37 443.359V443.374Z" fill="#B68665"/>
<path d="M2549.29 469.305C2552.35 406.349 2555.46 324.022 2524.94 267.951C2524.1 266.435 2521.3 263.232 2522.2 264.145L2519.07 260.757C2526.36 314.785 2523.82 372.156 2523.76 426.85C2523.72 466.814 2521.83 503.406 2525.37 543.138C2527.12 562.772 2529.22 582.7 2530.03 602.273C2530.57 615.671 2527.57 633.402 2531.59 644.836C2538.91 618.704 2539.84 579.9 2540.97 551.215C2542.25 519.017 2547.71 501.92 2549.31 469.305H2549.29Z" fill="#B68665"/>
<path d="M2573.78 526.228C2549.51 534.227 2572.87 593.113 2573.78 612.469C2574.6 630.045 2572.59 643.259 2576.52 660.185C2579.57 673.336 2577.39 699.716 2584.72 709.092C2599.98 688.901 2594.36 631.624 2589.77 606.976C2587.4 594.305 2594.64 522.081 2576.91 527.914L2573.78 526.228Z" fill="#B68665"/>
<path d="M2702.01 516.078C2700.2 502.911 2700.83 489.682 2700.06 476.81C2699.24 463.287 2693.05 456.232 2689.39 443.374C2681.91 417.134 2686.59 380.449 2687.82 352.538C2689.26 320.093 2695.11 292.042 2689.46 260.804C2687.37 249.23 2681.48 171.576 2656.63 189.74V188.054C2637.99 201.112 2660.83 243.367 2659.76 262.459C2658.01 293.558 2653.1 325.632 2653.51 357.148C2653.72 373.951 2659.6 388.247 2661.71 404.493C2663.55 418.758 2659.9 433.503 2661.24 448.511C2664.01 479.285 2674.19 505.309 2691.03 530.034C2711.77 560.529 2697.69 596.115 2706.31 630.556C2709.1 594.057 2706.95 552.051 2702.01 516.093V516.078Z" fill="#B68665"/>
<path d="M2842.65 422.657C2842.68 390.011 2843.93 353.822 2839.52 321.64C2836.65 300.629 2839.2 276.523 2834.79 255.698C2833.21 248.271 2829.56 232.397 2825.49 226.904C2822 222.17 2808.49 210.922 2809.82 223.578L2811.38 220.189C2830.81 271.804 2819.97 316.519 2822.32 371.955C2823.65 403.194 2830.33 433.426 2831.7 464.107C2832.7 486.65 2826.98 510.446 2842.29 527.759C2852.27 498.78 2842.6 453.694 2842.63 422.673L2842.65 422.657Z" fill="#B68665"/>
<path d="M2950.51 419.284C2951.83 387.659 2959.98 359.995 2956.69 328.401C2954.2 304.636 2954.86 274.11 2931.42 266.203C2928.79 265.321 2926.5 264.888 2923.95 264.146H2920.82C2940.26 279.107 2936.59 318.669 2933.34 340.237C2928.44 372.744 2921.01 401.043 2925.48 434.555C2929.43 464.092 2940.84 492.792 2941.15 522.855C2941.54 559.786 2939.92 598.266 2943 634.223C2957.69 628.498 2952.83 556.429 2953.67 540.168C2955.71 500.033 2948.84 459.976 2950.55 419.284H2950.51Z" fill="#B68665"/>
<path d="M3017.74 325.013L3007.95 325.725C2985.62 348.716 3010.99 389.222 3014.71 416.236C3019.24 449.254 3012.76 491.183 3024.32 522.669C3033.99 508.713 3026.91 480.337 3027.15 462.359C3027.36 444.674 3028.71 426.061 3028.71 407.835C3028.71 389.609 3028 372.435 3030.35 355.462C3032.31 341.336 3038.12 322.522 3017.77 325.028L3017.74 325.013Z" fill="#B68665"/>
<path d="M3050.51 330.196C3030.19 327.658 3060.64 398.273 3059.85 411.161C3058.2 438.408 3055.89 464.803 3058.45 492.498C3060.81 517.996 3057.7 543.432 3060.01 568.497C3061.62 585.996 3055.04 629.333 3070.9 639.344C3079.47 614.031 3071.6 580.519 3074.33 553.288C3076.75 529.26 3082.58 505.835 3083.37 480.492C3084.25 452.255 3082.64 423.879 3084.93 396.029C3087.32 367.004 3076.64 330.737 3050.49 330.196H3050.51Z" fill="#B68665"/>
<path d="M3123.05 438.841V437.155C3120.98 436.582 3121.03 435.236 3118.72 435.685C3108.94 452.487 3122.53 466.691 3124.62 482.813C3126.52 497.449 3116.4 522.793 3127.36 533.407C3130.4 522.963 3141.99 429.96 3123.05 438.856V438.841Z" fill="#B68665"/>
<path d="M3194.38 441.688C3173.8 450.353 3186.57 520.751 3190.87 538.451C3199.19 572.613 3197.92 608.122 3205.32 642.393C3205.36 600.556 3201.99 560.406 3211.23 520.782C3215.7 501.627 3216.33 448.187 3194.38 440.002V441.688Z" fill="#B68665"/>
<path d="M3598.39 783.405C3555.83 724.89 3552.27 659.489 3473.35 638.664C3449.16 632.289 3428.34 632.769 3405.7 622.356C3381.35 611.155 3379.48 594.661 3363.84 575.739C3352.51 562.046 3284.14 511.653 3253.39 510.478C3250.85 511.282 3238.86 512.179 3237.82 516.171C3235.32 525.888 3251.07 529.013 3258.4 533.067C3270.41 539.704 3281.51 545.367 3293.23 554.449C3320.95 575.925 3316.33 601.809 3316.33 636.126C3316.33 654.012 3312.63 672.053 3333.64 676.834C3350.86 680.748 3366.75 664.549 3383.89 663.187C3416.09 660.634 3565.94 677.978 3546.2 725.849C3544.75 729.377 3545.94 727.102 3546.45 730.646C3531.94 731.698 3516.84 731.574 3505.02 741.971C3526.86 789.378 3554.22 836.629 3603.03 855.413C3593.78 855.181 3577.13 851.343 3573.14 862.684C3602.47 881.607 3632.11 890.936 3665.13 891.54C3665.44 891.076 3665.38 890.627 3664.95 890.178C3670.47 889.931 3678.03 889.002 3686.54 888.043C3667.1 866.336 3626.67 822.271 3598.4 783.405H3598.39Z" fill="#B68665"/>
<path d="M2115.75 326.7C2115.75 312.729 2121.78 268.014 2101.68 270.908L2090.75 277.669C2073.77 272.888 2082.56 319.212 2084.16 328.402C2088.87 355.726 2084.43 384.844 2084.5 412.957C2084.56 445.696 2081.37 478.033 2081.37 510.942C2081.37 532.634 2077.47 561.087 2087.57 580.18C2099.61 568.173 2094.66 530.483 2093.95 513.185C2092.88 487.146 2091.77 460.518 2090.75 434.479C2089.89 412.818 2096.86 393.4 2098.61 372.374C2100.04 354.937 2096.33 337.809 2097.28 320.171C2113.71 329.299 2104.56 373.054 2109.73 390.755C2121.24 387.227 2115.76 339.65 2115.76 326.715L2115.75 326.7Z" fill="#FBB98B"/>
<path d="M2218.93 319.938C2221.22 340.392 2204.59 358.247 2204.86 380.388C2205.21 407.65 2211.86 433.674 2214.24 460.611C2217.54 497.898 2211.12 537.847 2211.12 575.723C2211.12 598.127 2208.32 627.415 2224.87 642.717C2228.75 607.874 2223.65 574.207 2222.05 539.781C2220.69 510.338 2222.22 479.982 2223.54 450.507C2224.65 425.303 2217.5 409.429 2214.32 385.788C2212.88 375.158 2211.19 363.152 2214.58 352.43C2218.36 340.454 2225.71 337.468 2220.49 323.311L2218.93 319.923V319.938Z" fill="#FBB98B"/>
<path d="M2315.84 259.07C2309.51 291.144 2322.38 320.293 2322.09 352.027C2321.78 385.787 2316.88 419.176 2315.48 453.044C2314.18 484.886 2311.25 515.428 2309.57 546.511C2309.16 554.402 2304.31 631.793 2322.54 618.023C2327.97 613.923 2323.64 574.067 2323.64 567.228V511.003C2323.64 482.116 2328.33 455.752 2328.33 426.463C2328.33 397.174 2329.89 370.377 2329.89 341.923C2329.89 318.7 2331.65 283.284 2320.51 264.145L2315.82 259.07H2315.84Z" fill="#FBB98B"/>
<path d="M2657.01 544.825C2654.3 529.693 2645.42 518.135 2640.99 504.334C2636.97 491.771 2636.92 475.231 2636.31 461.972C2634.96 433.472 2632.24 406.891 2634.66 379.118C2635.08 374.353 2642.34 355.833 2636 352.321C2629.36 348.654 2624.11 364.482 2623.8 368.969L2619.12 375.73C2592.4 399.48 2611.6 417.783 2615.9 446.376C2621.22 481.807 2619.22 521.384 2620.68 557.032C2621.87 586.058 2620.08 614.867 2617.55 642.887C2615.6 664.486 2609.79 693.326 2613.1 715.343C2634.7 722.321 2631.99 642.33 2634.79 627.26C2640.11 598.59 2662.56 575.738 2657.01 544.825Z" fill="#FBB98B"/>
<path d="M2814.5 571.87C2814.5 535.155 2809.82 500.466 2809.82 463.658C2809.82 407.448 2798.23 354.704 2800.78 297.952C2801.46 282.867 2804.99 264.068 2805.13 252.294L2802 237.069C2776.44 253.671 2786.38 285.605 2787.92 313.161C2789.55 342.078 2792.92 367.128 2787.97 394.374C2783.28 420.228 2796.46 451.42 2797.66 479.239C2799.39 519.776 2796.34 560.405 2796.09 600.633C2796.03 611.989 2801.24 644.403 2812.94 622.588C2819.05 611.169 2814.5 584.96 2814.5 571.855V571.87Z" fill="#FBB98B"/>
<path d="M2902.13 470.466C2898.48 431.399 2891.46 391.698 2886.51 352.445C2884.51 336.632 2886.24 323.466 2889.2 308.117C2891.3 297.194 2898.65 280.02 2893.05 268.803C2890.11 262.908 2884.23 259.937 2878.6 257.384L2867.66 250.623C2850.13 260.494 2865.93 320.959 2866.1 339.866C2866.46 380.991 2870.19 423.4 2875.4 463.767C2879.27 493.783 2889.62 521.277 2889.56 551.602C2889.51 568.095 2889.56 584.573 2889.56 601.066C2889.56 611.85 2884.42 643.228 2889.91 652.681C2890.65 653.95 2890.85 654.677 2891.4 656.147C2893.39 656.302 2895.13 656.348 2897.14 656.193C2903.84 597.925 2907.69 529.987 2902.15 470.497L2902.13 470.466Z" fill="#FBB98B"/>
<path d="M3041.74 320.602L3038.61 318.916C3022.16 326.853 3029.27 370.191 3029.23 386.978C3029.19 403.548 3033.64 416.684 3035.56 432.528C3037.88 451.651 3034.48 473.684 3032.7 492.59C3029.34 528.548 3024.55 563.499 3024.53 600.013C3024.53 622.68 3022.12 654.475 3038.55 670.814C3045.56 663.681 3042.21 636.094 3041.72 624.877C3040.93 607.595 3041.77 590.699 3041.72 573.014C3041.64 537.614 3047.78 507.861 3051.14 474.488C3054.1 445.045 3055.8 416.7 3055.8 386.576C3055.8 363.862 3066.1 326.157 3041.74 320.618V320.602Z" fill="#FBB98B"/>
<path d="M3184.75 438.006C3191.42 446.098 3198.28 440.265 3198.37 439.986C3193.99 439.12 3175.49 431.043 3170.94 431.538L3156.15 434.122C3129.83 453.679 3158.79 521.834 3160 551.602C3161.17 580.473 3160.54 609.932 3161.56 639.159C3162.2 657.478 3161.86 687.756 3170.98 702.331C3183.25 680.129 3175.58 640.242 3175.63 614.543C3175.69 587.807 3176.48 560.576 3174.03 534.32C3172.31 515.892 3157.6 440.806 3184.77 438.021L3184.75 438.006Z" fill="#FBB98B"/>
<path d="M1733.11 864.031C1720.03 846.686 1715.95 855.01 1698.33 857.687C1681.31 860.286 1680.01 846.052 1665.19 839.507C1646.6 831.307 1639.97 842.37 1631.1 856.186C1626.75 837.171 1619.75 849.425 1609.33 852.72C1602.25 854.964 1602.74 848.574 1595.15 854.206C1593.78 855.212 1591.59 865.005 1590.1 867.527C1566.72 847.971 1553.71 874.521 1554.53 899.91L1748.38 904.985C1746.41 891.308 1741.66 875.403 1733.09 864.031H1733.11Z" fill="#7C936C"/>
<path d="M2453.41 904.985C2453.41 878.373 2452.92 855.691 2478.77 850.369C2488.83 848.295 2482.72 857.176 2490.89 847.398C2493.8 843.917 2492.43 835.763 2495.98 832.653C2504.21 825.397 2518.77 832.282 2525.28 839.229C2535.83 826.866 2534.97 800.533 2548.7 786.654C2561.62 773.596 2572.14 780.79 2586.3 786.19C2621.11 799.465 2617 765.349 2629.68 742.234C2638.01 727.071 2646.78 727.768 2659.77 729.129C2668.48 730.042 2664.93 736.757 2673.45 729.129C2677.95 725.091 2676.99 714.152 2680.46 709.217C2701.53 679.216 2714.16 730.243 2725.44 742.745C2727.2 744.71 2727.93 748.438 2728.84 750.929C2738.82 744.044 2746.63 732.131 2760.17 738.815C2770.23 743.781 2776.49 759.253 2780.45 769.45C2793.51 763.4 2801.48 764.034 2811.41 776.845C2822.21 790.785 2817.89 799.527 2834.51 799.713C2848.28 799.868 2858.48 793.586 2871.24 806.428C2881.45 816.701 2880.57 828.739 2881.76 842.4C2884.72 876.532 2910.21 865.903 2932.09 879.147C2939.84 883.835 2941.09 888.09 2950.53 887.796C2956.89 887.61 2961.32 878.559 2970.89 881.251C2980.72 884.005 2986.35 894.928 2991.25 903.438C2991.22 904.691 2991.19 904.645 2991.18 903.268L2453.43 904.954L2453.41 904.985Z" fill="#7C936C"/>
<path d="M3483.85 676.415C3480.85 667.487 3479.15 644.078 3469.54 639.39C3458.34 633.928 3446.83 653.346 3441.41 661.701C3429.61 649.633 3396.87 664.811 3394.21 681.49C3379.81 678.565 3373.29 695.213 3369.04 707.142C3361.67 727.813 3362.34 724.363 3343.28 721.949C3328.66 720.093 3318.68 724.657 3310.46 739.649C3304.23 751.037 3306.27 768.52 3296 776.643C3276.97 765.859 3266.65 771.537 3261.34 794.823C3253.65 794.25 3241.83 800.594 3237 807.34C3233.94 811.625 3236.6 816.607 3233.94 820.862C3231.67 824.514 3225.91 825.349 3224.49 829.325C3216.53 851.342 3249.52 842.43 3264.74 842.43L3288.2 823.833C3295.5 820.445 3307.2 822.75 3316.34 822.147C3334.33 820.955 3327.09 814.225 3338.28 805.576C3343.63 801.429 3357.51 802.358 3363.62 800.578C3367.68 799.403 3370.62 796.339 3375.74 795.086C3380.73 793.863 3386.41 796.323 3391.36 794.699C3410.55 788.448 3413.01 757.581 3420.68 739.278C3427.54 722.924 3447.85 698.246 3461.71 723.512C3465.53 712.542 3495.36 711.072 3503.92 715.776C3517.12 701.572 3501.74 671.789 3483.87 676.415H3483.85Z" fill="#7C936C"/>
<path d="M2401.48 883.371C2396.4 874.119 2386.95 866.661 2379.55 859.791C2371.55 852.38 2361.45 845.263 2354.92 836.026C2345.82 823.153 2350.54 822.829 2350.23 806.908C2349.83 785.665 2338.8 765.613 2323.62 752.755C2317.19 747.309 2301.03 742.281 2298.54 734.189C2295.26 723.544 2306.68 712.946 2312.53 706.68C2300.52 690.124 2274.27 697.984 2256.46 696.978C2235.76 695.818 2222.16 702.502 2204.96 717.618C2187.27 733.137 2169.68 743.178 2155.99 762.967C2143.77 780.636 2111.62 883.742 2098.78 901.133L2408.1 906.656C2405.89 903.113 2405.19 890.101 2401.49 883.355L2401.48 883.371Z" fill="#FBB98B"/>
<path d="M2223.68 901.798C2222.42 893.923 2221.36 885.336 2217.08 878.218C2208.82 877.862 2197.89 874.969 2190.71 869.477C2179.37 860.797 2182.83 858.832 2181.41 844.118C2178.96 818.774 2164.14 808.207 2143.89 800.162C2115.07 788.697 2129.66 756.267 2112.62 730.8C2093.24 701.805 2069.97 749.243 2065.73 702.099C2064.29 686.101 2061.72 674.219 2052.79 661.562C2042.01 646.276 2030.59 654.383 2021.54 641.217C2012.43 627.988 2016.26 610.922 1996.96 609.097C1980.31 607.503 1981.58 621.629 1971.91 631.33C1956.82 603.434 1924.13 622.557 1916.84 647.993C1913.87 658.391 1917.32 673.615 1909.84 682.28C1901.57 691.826 1892.51 687.37 1881.28 688.577C1867.26 690.093 1864.92 693.311 1854.31 687.308C1845.46 682.295 1841.93 675.193 1829.69 675.054C1802.15 674.729 1799.57 697.814 1790.66 718.84C1781.7 709.913 1775.31 687.664 1759.75 705.813C1749.98 717.2 1758.96 742.327 1748.71 749.227C1742.65 736.881 1734.65 727.087 1726.53 745.978C1721.35 758.016 1727.52 774.277 1728.09 786.639C1729.45 815.727 1864.09 788.325 1887.54 903.314L2222.07 899.926C2222.48 900.498 2223.88 904.119 2223.69 901.813L2223.68 901.798Z" fill="#7C936C"/>
<path d="M3336.98 883.679L3359.07 787.396L3381.15 883.679H3364.52V903.669H3355.59V883.679H3336.98Z" fill="#404762"/>
<path d="M3384.42 831.957L3406.51 735.674L3428.6 831.957H3411.97V851.947H3403.04V831.957H3384.42Z" fill="#404762"/>
<path d="M3247.69 791.823L3265.61 713.72L3283.52 791.823H3270.03V808.038H3262.79V791.823H3247.69Z" fill="#404762"/>
<path d="M2254.99 823.569C2248.66 829.031 2241.02 831.46 2233.07 833.224C2239.12 827.143 2246.68 824.513 2254.99 823.569Z" fill="#90B255"/>
<path d="M2229.86 834.757C2228.78 836.799 2226.38 836.165 2224.83 837.248C2225.56 834.509 2227.65 834.525 2229.86 834.757Z" fill="#90B255"/>
</g>
<defs>
<clipPath id="clip0_938_4564">
<rect width="3634" height="1026" fill="white"/>
</clipPath>
</defs>
</svg>
