<svg width="3634" height="1026" viewBox="0 0 3634 1026" fill="none" xmlns="http://www.w3.org/2000/svg">
<g clip-path="url(#clip0_938_4149)">
<path d="M2406.25 864.221C2384.05 810.305 2369.64 753.707 2361.95 695.911C2352.37 623.921 2264.02 526.042 2170.56 526.042C2103.06 526.042 1880.69 429.868 1850.87 409.926C1812.59 384.346 1795.04 339.023 1749.06 325.009C1705.99 311.884 1659.07 327.892 1616.02 331.01C1579.77 333.639 1541.18 330.067 1505.96 325.082C1488.8 322.653 1476.71 314.857 1458.17 315.183C1440.36 315.492 1423.46 321.311 1406.23 321.166C1360.89 320.822 1368.02 274.067 1335.68 257.714C1307.16 243.284 1261.69 261.177 1229.61 251.768C1196.3 241.996 1164.78 234.636 1129.89 229.923C1095.14 225.245 1061.8 220.459 1028.07 213.679C982.735 204.578 932.354 201.514 890.589 219.571C853.665 235.543 827.387 247.236 786.165 242.16C754.592 238.262 679.566 227.348 652.853 250.39L689.395 340.927C680.908 362.591 700.567 410.85 703.831 434.527C709.09 472.725 715.765 512.047 710.687 550.933C704.901 595.186 694.799 640.817 676.936 681.589C654.865 731.934 631.544 781.371 633.248 837.771C635.134 899.972 675.286 948.811 740.737 959.054C870.169 979.341 1006.49 946.545 1136.07 941.179C1239.69 936.882 1342.54 922.778 1446.17 917.466C1566.4 911.302 1686.37 909.526 1806.77 909.526C1943.44 909.526 2081.07 910.94 2214.11 944.932C2292.36 964.928 2357.76 989.964 2438.55 978.579C2441.07 945.929 2418.8 894.714 2406.23 864.221H2406.25Z" fill="#C69471"/>
<path d="M2401.21 903.817C2351.32 835.235 2347.13 758.621 2254.64 734.22C2226.3 726.751 2197.06 732.552 2170.53 720.351C2141.98 707.226 2139.5 688.263 2121.15 666.073C2104.41 645.841 1989.39 548.27 1978.33 597.889C1904.27 596.965 1981.41 464.26 1876.72 500.337C1886.08 514.623 1887.84 562.139 1858.77 550.138C1843.57 543.865 1852.62 500.627 1838.96 496.294C1796.94 482.969 1836 605.413 1792.59 609.782C1790.1 554.887 1778.26 503.419 1780.87 447.926C1782.03 423.234 1792.46 396.53 1769.34 377.585C1748.03 360.109 1728.84 380.994 1708.7 365.131C1699.45 387.865 1685.41 422.274 1656.48 412.266C1632.76 404.054 1637.82 375.972 1633.87 353.927C1623.51 296.168 1595.77 270.66 1536.08 278.148C1537.71 285.762 1533.33 297.093 1534.98 304.707C1483.58 321.041 1506.67 300.682 1496.04 262.593C1489.78 240.149 1465.41 224.504 1441.18 250.827C1423.39 270.135 1428.92 311.995 1430.08 337.883C1430.88 355.667 1435.36 372.31 1430.35 389.587C1427.23 400.319 1413.96 408.223 1410.77 424.177C1397.93 488.154 1458.17 549.594 1424.7 613.589C1401.32 658.277 1392.56 633.803 1375.13 609.546C1363.22 592.94 1326.38 565.076 1344.45 541.961C1327.22 509.565 1321.16 502.277 1323.19 467.977C1324.99 437.792 1328.87 403.873 1330.34 372.654C1331.81 341.182 1334.02 301.788 1322.09 273.507C1312.22 250.12 1279.23 231.375 1294.05 203.873C1262.76 220.389 1262.11 279.544 1260.7 313.227C1259.77 335.182 1261.35 356.048 1257.02 376.606C1252.17 399.612 1234.82 413.1 1228.65 432.009C1207.58 496.512 1276.09 658.712 1220.29 705.993C1200.16 690.855 1214.51 671.403 1213.04 650.028C1211.44 626.986 1207.02 618.23 1195.63 598.615C1185.35 580.902 1171.69 566.019 1165.51 546.874C1158.18 524.195 1165.99 513.372 1164.56 492.397C1162.04 455.758 1158.27 260.345 1110.99 274.177C1109.92 297.129 1113.87 323.053 1110.52 345.769C1106.87 370.515 1094.02 390.983 1092.11 416.218C1090.19 441.545 1122.98 533.386 1081.67 534.474C1078.55 466.418 1058.52 411.414 1043.94 345.279C1039.5 347.056 1033.33 346.947 1029.56 348.343C1025.05 326.443 1022.09 270.624 992.294 304.29C976.281 322.364 989.12 367.905 993.999 387.593C1001.49 417.814 1004.08 436.831 993.999 466.835C985.947 490.837 985.348 508.858 981.34 538.136C977.477 566.399 966.361 594.01 972.001 626.189C974.612 641.018 1002.61 695.75 975.029 704.742C941.297 715.746 937.126 566.925 937.997 542.977C938.777 521.929 946.412 502.023 945.505 479.471C944.762 460.943 935.313 441.581 935.349 424.105C935.422 384.456 954.954 363.191 940.935 321.095C934.733 302.459 920.551 232.463 907.947 221.948C883.392 201.462 876.609 251.063 875.702 273.325C874.577 301.226 904.446 448.524 867.468 433.205C852.253 426.896 840.628 372.237 828.332 357.317C818.394 345.261 812.138 350.7 802.689 332.952C796.142 320.642 791.663 298.978 788.199 285.816C783.61 286.56 778.243 288.028 773.818 290.058C765.258 313.717 777.843 338.445 768.866 363.771C759.381 390.511 744.365 395.098 747.63 432.009C750.803 467.868 778.043 541.816 747.612 571.113C716.492 557.48 734.554 517.614 733.049 491.563C730.854 453.51 706.699 441.545 696.234 408.26C687.004 378.873 684.266 347.31 685.408 317.125C686.387 291.237 691.374 238.101 652.891 250.356C651.059 259.783 652.601 281.61 647.922 289.46C641.737 299.848 630.566 297.926 623.929 306.211C607.571 326.607 605.05 330.903 601.84 361.577C596.835 409.456 595.891 462.81 586.443 511.269C570.448 593.321 491.867 646.185 428.665 686.504C366.371 726.261 287.881 730.394 230.972 777.748C175.279 824.085 177.944 891.525 145.863 951.025C115.377 1007.55 46.6078 1004.38 0 1042.25H2517.68C2520.94 1042.21 2447.29 967.105 2401.23 903.762L2401.21 903.817Z" fill="#E8AB80"/>
<path d="M724.382 445.133C694.386 383.785 699.555 327.73 688.946 261.686C685.808 242.179 672.206 234.492 659.639 251.787L665.134 249.811C680.767 278.237 677.538 317.759 676.178 350.862C675.29 372.146 670.883 392.686 670.647 414.259C670.575 420.369 668.471 432.479 670.647 438.027C674.274 447.218 678.935 443.248 683.469 449.919C698.884 472.671 702.765 515.148 701.386 545.006C700.625 561.449 698.975 578.073 701.895 594.535C702.965 600.572 710.2 633.331 716.874 635.687C716.874 635.687 719.849 638.008 719.758 637.917C718.616 605.611 737.658 580.104 739.181 547.87C739.888 532.588 738.202 513.824 739.072 499.43C740.196 480.521 732.906 462.501 724.419 445.133H724.382Z" fill="#B68665"/>
<path d="M818.957 487.538C816.654 462.411 812.628 437.429 810.289 412.248C808.022 387.81 811.196 367.759 805.755 345.37C802.418 331.665 801.421 289.279 786.06 287.43L784.228 289.406C777.228 307.281 788.436 333.713 791.954 352.803C796.543 377.676 792.698 399.231 791.555 424.141C790.231 453.165 800.731 470.533 810.379 494.916C817.271 512.302 808.476 545.696 819.048 559.148C829.857 542.215 820.735 507.045 818.957 487.538Z" fill="#B68665"/>
<path d="M870.355 536.575C870.355 503.29 886.277 428.218 853.869 414.241L850.206 412.265C849.208 432.515 854.903 454.197 853.869 475.662C852.527 503.889 852.038 528.635 852.038 556.88C852.038 589.204 854.014 621.528 855.792 653.417C856.698 669.715 853.852 704.341 864.461 715.183C872.73 689.784 865.513 655.574 866.691 628.653C868.051 598.069 870.355 567.703 870.355 536.575Z" fill="#B68665"/>
<path d="M956.279 663.679C954.647 647.545 944.436 632.225 943.657 616.326C942.061 583.857 944.472 552.73 947.936 520.569C949.496 506.047 949.713 485.253 949.151 469.717C948.553 453.455 939.141 439.405 939.957 422.164C941.48 390.003 948.462 357.444 945.398 325.192C944.037 310.834 921.332 201.933 905.173 222.074V220.098C890.175 243.648 915.637 284.474 921.713 309.257C929.674 341.744 919.446 373.47 917.995 406.338C916.454 441.417 927.153 469.481 927.153 503.854C927.153 541.326 926.808 579.053 925.321 615.909C924.088 646.167 938.633 707.044 965.02 722.073C966.362 707.298 957.747 678.382 956.26 663.697L956.279 663.679Z" fill="#B68665"/>
<path d="M1011.79 297.037C1010.74 296.167 1012.22 294.209 1011.23 293.665C995.086 311.431 1017.01 344.535 1018.83 364.749C1021.09 390.021 1021.35 420.84 1027.95 445.133C1031.19 435.38 1032.83 388.516 1029.94 349.974L1037.49 349.303C1030.54 324.956 1021.47 296.693 1011.79 297.037Z" fill="#B68665"/>
<path d="M1081.17 503.401C1079.72 477.005 1081.1 442.269 1075.63 416.218C1071.44 396.312 1064.56 349.104 1042.6 348.851L1037.49 349.304C1041.28 362.556 1044.43 374.648 1046.74 380.304C1067.39 431.374 1065.23 470.587 1057.22 525.174C1052.45 557.733 1056.44 586.486 1059.14 618.393C1060.41 633.404 1062.59 647.309 1064.64 661.885C1066.63 675.935 1062.71 689.278 1064.91 703.237C1083.82 693.882 1073.54 624.267 1073.76 602.385C1074.08 568.991 1082.95 535.616 1081.17 503.382V503.401Z" fill="#B68665"/>
<path d="M1167.81 533.767C1171.4 459.999 1175.05 363.535 1139.26 297.835C1138.28 296.059 1135 292.306 1136.05 293.376L1132.39 289.405C1140.93 352.712 1137.96 419.934 1137.89 484.02C1137.83 530.848 1135.62 573.723 1139.77 620.278C1141.82 643.284 1144.29 666.634 1145.23 689.567C1145.87 705.267 1142.35 726.043 1147.06 739.44C1155.64 708.82 1156.73 663.353 1158.05 629.742C1159.56 592.015 1165.96 571.983 1167.83 533.767H1167.81Z" fill="#B68665"/>
<path d="M1196.52 600.48C1168.06 609.853 1195.45 678.852 1196.52 701.532C1197.48 722.126 1195.12 737.608 1199.73 757.442C1203.3 772.851 1200.74 803.761 1209.34 814.747C1227.22 791.089 1220.64 723.975 1215.25 695.096C1212.48 680.248 1220.96 595.622 1200.18 602.456L1196.52 600.48Z" fill="#B68665"/>
<path d="M1346.82 588.588C1344.7 573.16 1345.44 557.66 1344.54 542.577C1343.58 526.732 1336.32 518.465 1332.02 503.4C1323.27 472.653 1328.74 429.669 1330.19 396.964C1331.88 358.948 1338.73 326.08 1332.11 289.477C1329.67 275.917 1322.76 184.927 1293.63 206.211V204.235C1271.78 219.536 1298.55 269.046 1297.3 291.417C1295.25 327.857 1289.5 365.438 1289.97 402.367C1290.22 422.055 1297.11 438.806 1299.58 457.842C1301.74 474.557 1297.46 491.834 1299.04 509.419C1302.28 545.477 1314.22 575.97 1333.95 604.941C1358.27 640.673 1341.76 682.37 1351.86 722.725C1355.13 679.959 1352.61 630.738 1346.82 588.606V588.588Z" fill="#B68665"/>
<path d="M1511.69 479.126C1511.73 440.874 1513.2 398.47 1508.03 360.762C1504.65 336.142 1507.65 307.897 1502.48 283.496C1500.63 274.794 1496.35 256.193 1491.58 249.757C1487.48 244.21 1471.65 231.03 1473.21 245.86L1475.04 241.889C1497.82 302.368 1485.1 354.761 1487.86 419.717C1489.42 456.32 1497.25 491.744 1498.85 527.694C1500.03 554.108 1493.32 581.99 1511.27 602.276C1522.97 568.321 1511.64 515.493 1511.67 479.144L1511.69 479.126Z" fill="#B68665"/>
<path d="M1638.13 475.154C1639.67 438.098 1649.23 405.683 1645.37 368.664C1642.45 340.818 1643.23 305.049 1615.75 295.785C1612.67 294.752 1609.98 294.244 1606.99 293.374H1603.33C1626.11 310.905 1621.81 357.261 1618 382.533C1612.25 420.622 1603.55 453.78 1608.79 493.047C1613.41 527.656 1626.79 561.285 1627.16 596.51C1627.61 639.784 1625.71 684.87 1629.32 727.002C1646.54 720.295 1640.85 635.85 1641.83 616.796C1644.22 569.769 1636.17 522.833 1638.17 475.154H1638.13Z" fill="#B68665"/>
<path d="M1716.91 364.712L1705.43 365.546C1679.26 392.486 1709 439.948 1713.35 471.601C1718.67 510.288 1711.07 559.418 1724.62 596.311C1735.95 579.958 1727.66 546.71 1727.94 525.644C1728.19 504.922 1729.77 483.113 1729.77 461.757C1729.77 440.401 1728.93 420.278 1731.69 400.39C1733.99 383.838 1740.79 361.793 1716.94 364.73L1716.91 364.712Z" fill="#B68665"/>
<path d="M1755.34 370.786C1731.53 367.813 1767.22 450.554 1766.29 465.655C1764.35 497.581 1761.65 528.509 1764.64 560.96C1767.42 590.836 1763.77 620.641 1766.47 650.01C1768.36 670.513 1760.65 721.293 1779.24 733.022C1789.29 703.363 1780.06 664.096 1783.27 632.189C1786.1 604.034 1792.93 576.587 1793.86 546.892C1794.89 513.806 1793.01 480.557 1795.69 447.925C1798.48 413.915 1785.97 371.421 1755.32 370.786H1755.34Z" fill="#B68665"/>
<path d="M1840.37 498.088V496.112C1837.94 495.441 1838 493.864 1835.3 494.39C1823.83 514.078 1839.76 530.72 1842.21 549.611C1844.44 566.761 1832.58 596.456 1845.42 608.893C1848.99 596.655 1862.57 487.682 1840.37 498.106V498.088Z" fill="#B68665"/>
<path d="M1923.98 501.405C1899.86 511.557 1914.82 594.044 1919.86 614.784C1929.62 654.813 1928.13 696.419 1936.8 736.575C1936.86 687.554 1932.9 640.509 1943.73 594.08C1948.97 571.637 1949.71 509.019 1923.98 499.429V501.405Z" fill="#B68665"/>
<path d="M2397.53 901.822C2347.64 833.258 2343.47 756.627 2250.96 732.225C2222.61 724.756 2198.2 725.318 2171.67 713.117C2143.13 699.992 2140.93 680.666 2122.6 658.495C2109.32 642.45 2029.18 583.404 1993.13 582.026C1990.15 582.969 1976.1 584.021 1974.88 588.698C1971.95 600.083 1990.41 603.745 1999 608.495C2013.08 616.272 2026.1 622.907 2039.83 633.549C2072.33 658.712 2066.9 689.042 2066.9 729.252C2066.9 750.209 2062.57 771.348 2087.2 776.95C2107.38 781.536 2126.01 762.555 2146.1 760.96C2183.84 757.969 2359.5 778.291 2336.36 834.382C2334.65 838.516 2336.05 835.851 2336.65 840.003C2319.64 841.235 2301.94 841.09 2288.08 853.273C2313.69 908.82 2345.75 964.186 2402.97 986.195C2392.12 985.923 2372.61 981.427 2367.93 994.716C2402.32 1016.89 2437.06 1027.82 2475.76 1028.53C2476.13 1027.98 2476.05 1027.46 2475.55 1026.93C2482.02 1026.64 2490.89 1025.55 2500.86 1024.43C2478.07 998.994 2430.68 947.363 2397.55 901.822H2397.53Z" fill="#B68665"/>
<path d="M659.639 366.69C659.639 350.319 666.712 297.926 643.154 301.316L630.333 309.239C610.438 303.637 620.739 357.915 622.607 368.684C628.138 400.7 622.934 434.819 623.006 467.759C623.079 506.12 619.343 544.01 619.343 582.57C619.343 607.987 614.772 641.326 626.615 663.698C640.724 649.629 634.921 605.467 634.087 585.199C632.835 554.688 631.53 523.488 630.333 492.976C629.335 467.596 637.496 444.844 639.546 420.207C641.232 399.775 636.879 379.706 637.985 359.039C657.245 369.735 646.528 421.004 652.585 441.744C666.078 437.61 659.658 381.864 659.658 366.708L659.639 366.69Z" fill="#FBB98B"/>
<path d="M780.583 358.767C783.267 382.734 763.771 403.655 764.098 429.597C764.497 461.541 772.295 492.034 775.088 523.596C778.951 567.287 771.425 614.096 771.425 658.476C771.425 684.727 768.142 719.045 787.547 736.975C792.099 696.148 786.115 656.7 784.247 616.363C782.651 581.863 784.446 546.294 785.988 511.758C787.293 482.226 778.915 463.625 775.179 435.924C773.493 423.47 771.516 409.402 775.487 396.838C779.912 382.806 788.526 379.307 782.415 362.719L780.583 358.749V358.767Z" fill="#FBB98B"/>
<path d="M894.182 287.447C886.764 325.029 901.853 359.184 901.508 396.366C901.146 435.924 895.397 475.046 893.764 514.731C892.241 552.04 888.796 587.827 886.837 624.248C886.347 633.494 880.671 724.176 902.034 708.041C908.4 703.237 903.322 656.536 903.322 648.523V582.642C903.322 548.795 908.817 517.904 908.817 483.585C908.817 449.267 910.649 417.868 910.649 384.528C910.649 357.317 912.716 315.819 899.658 293.394L894.164 287.447H894.182Z" fill="#FBB98B"/>
<path d="M1294.09 622.272C1290.91 604.542 1280.5 590.999 1275.32 574.828C1270.6 560.107 1270.55 540.727 1269.82 525.191C1268.24 491.797 1265.05 460.652 1267.9 428.11C1268.39 422.526 1276.89 400.826 1269.46 396.71C1261.68 392.414 1255.53 410.96 1255.17 416.217L1249.67 424.14C1218.35 451.968 1240.86 473.414 1245.9 506.917C1252.14 548.432 1249.8 594.806 1251.5 636.576C1252.9 670.586 1250.8 704.342 1247.84 737.174C1245.56 762.482 1238.74 796.274 1242.62 822.072C1267.94 830.248 1264.76 736.521 1268.04 718.863C1274.28 685.27 1300.6 658.494 1294.09 622.272Z" fill="#FBB98B"/>
<path d="M1478.7 653.962C1478.7 610.942 1473.2 570.297 1473.2 527.168C1473.2 461.305 1459.62 399.503 1462.61 333.006C1463.41 315.33 1467.55 293.303 1467.71 279.507L1464.05 261.668C1434.09 281.12 1445.73 318.539 1447.54 350.827C1449.45 384.71 1453.4 414.061 1447.6 445.986C1442.1 476.279 1457.55 512.828 1458.95 545.424C1460.98 592.922 1457.41 640.528 1457.12 687.664C1457.05 700.971 1463.16 738.951 1476.87 713.389C1484.03 700.01 1478.7 669.299 1478.7 653.944V653.962Z" fill="#FBB98B"/>
<path d="M1581.42 535.144C1577.14 489.368 1568.91 442.849 1563.1 396.856C1560.76 378.328 1562.79 362.9 1566.26 344.916C1568.72 332.117 1577.34 311.994 1570.77 298.85C1567.33 291.943 1560.44 288.463 1553.84 285.471L1541.01 277.549C1520.47 289.115 1538.98 359.963 1539.18 382.117C1539.6 430.304 1543.97 479.996 1550.08 527.294C1554.61 562.465 1566.75 594.68 1566.68 630.213C1566.62 649.538 1566.68 668.846 1566.68 688.171C1566.68 700.807 1560.65 737.573 1567.09 748.65C1567.96 750.136 1568.2 750.989 1568.83 752.711C1571.17 752.892 1573.2 752.947 1575.56 752.765C1583.41 684.491 1587.93 604.887 1581.44 535.181L1581.42 535.144Z" fill="#FBB98B"/>
<path d="M1745.05 359.528L1741.39 357.552C1722.11 366.852 1730.44 417.631 1730.4 437.301C1730.35 456.718 1735.57 472.109 1737.82 490.673C1740.54 513.081 1736.55 538.896 1734.46 561.05C1730.53 603.182 1724.91 644.136 1724.89 686.92C1724.89 713.479 1722.06 750.734 1741.32 769.879C1749.53 761.521 1745.62 729.197 1745.04 716.053C1744.11 695.803 1745.09 676.006 1745.04 655.285C1744.95 613.806 1752.15 578.944 1756.08 539.839C1759.55 505.34 1761.54 472.127 1761.54 436.83C1761.54 410.217 1773.62 366.036 1745.05 359.546V359.528Z" fill="#FBB98B"/>
<path d="M1912.7 497.109C1920.52 506.591 1928.55 499.756 1928.66 499.43C1923.53 498.415 1901.84 488.951 1896.51 489.531L1879.17 492.559C1848.32 515.474 1882.27 595.332 1883.68 630.213C1885.06 664.041 1884.32 698.559 1885.52 732.805C1886.26 754.27 1885.86 789.748 1896.56 806.826C1910.94 780.811 1901.95 734.074 1902 703.962C1902.07 672.635 1903 640.728 1900.13 609.963C1898.12 588.371 1880.87 500.391 1912.72 497.128L1912.7 497.109Z" fill="#FBB98B"/>
<path d="M211.115 996.273C195.79 975.951 191.003 985.704 170.347 988.84C150.398 991.886 148.874 975.207 131.501 967.539C109.72 957.93 101.94 970.893 91.5481 987.082C86.4521 964.801 78.2371 979.159 66.032 983.021C57.726 985.65 58.3065 978.162 49.402 984.761C47.8061 985.94 45.2305 997.415 43.4895 1000.37C16.0869 977.455 0.835577 1008.56 1.79675 1038.31L229.015 1044.26C226.711 1028.23 221.144 1009.6 211.097 996.273H211.115Z" fill="#7C936C"/>
<path d="M1055.42 1044.28C1055.42 1013.1 1054.84 986.521 1085.14 980.284C1096.93 977.855 1089.77 988.261 1099.34 976.804C1102.75 972.724 1101.16 963.171 1105.31 959.527C1114.96 951.024 1132.02 959.091 1139.66 967.231C1152.03 952.746 1151.01 921.891 1167.12 905.629C1182.26 890.328 1194.59 898.758 1211.19 905.085C1251.99 920.64 1247.17 880.665 1262.04 853.581C1271.79 835.814 1282.08 836.63 1297.31 838.225C1307.52 839.295 1303.35 847.163 1313.34 838.225C1318.62 833.493 1317.49 820.676 1321.56 814.893C1346.26 779.741 1361.06 839.531 1374.28 854.179C1376.34 856.481 1377.2 860.85 1378.27 863.769C1389.96 855.702 1399.12 841.742 1414.99 849.574C1426.78 855.393 1434.12 873.522 1438.77 885.469C1454.07 878.381 1463.41 879.124 1475.05 894.135C1487.71 910.469 1482.65 920.712 1502.13 920.93C1518.27 921.111 1530.22 913.751 1545.18 928.798C1557.15 940.836 1556.12 954.94 1557.52 970.948C1560.98 1010.94 1590.87 998.486 1616.51 1014C1625.6 1019.5 1627.07 1024.48 1638.13 1024.14C1645.58 1023.92 1650.77 1013.32 1661.99 1016.47C1673.51 1019.7 1680.11 1032.5 1685.86 1042.47C1685.82 1043.94 1685.79 1043.88 1685.77 1042.27L1055.44 1044.24L1055.42 1044.28Z" fill="#7C936C"/>
<path d="M2263.27 776.459C2259.76 765.999 2257.76 738.569 2246.5 733.076C2233.37 726.677 2219.88 749.429 2213.53 759.218C2199.69 745.078 2161.32 762.862 2158.2 782.405C2141.31 778.979 2133.68 798.486 2128.69 812.463C2120.06 836.684 2120.84 832.641 2098.5 829.813C2081.36 827.637 2069.66 832.985 2060.03 850.552C2052.72 863.895 2055.12 884.381 2043.07 893.899C2020.77 881.263 2008.67 887.916 2002.45 915.201C1993.44 914.53 1979.58 921.963 1973.93 929.867C1970.33 934.889 1973.45 940.726 1970.33 945.712C1967.67 949.99 1960.92 950.969 1959.25 955.628C1949.93 981.426 1988.6 970.984 2006.44 970.984L2033.93 949.192C2042.49 945.222 2056.2 947.923 2066.92 947.216C2088.01 945.82 2079.53 937.934 2092.64 927.8C2098.91 922.942 2115.18 924.029 2122.34 921.945C2127.1 920.567 2130.54 916.977 2136.54 915.509C2142.4 914.077 2149.06 916.959 2154.86 915.055C2177.35 907.731 2180.23 871.564 2189.23 850.117C2197.26 830.955 2221.07 802.039 2237.32 831.644C2241.8 818.79 2276.77 817.068 2286.8 822.579C2302.26 805.937 2284.24 771.039 2263.29 776.459H2263.27Z" fill="#7C936C"/>
<path d="M1055.52 768.772C1051.45 759.78 1031.41 754.432 1022.35 758.711C1011.28 732.424 1008.24 711.847 979.801 700.027C962.844 692.975 962.772 700.408 948.699 704.976C938.344 708.348 929.729 700.553 919.338 704.94C907.278 710.016 907.097 730.52 899.226 738.66C887.71 750.607 880.147 746.365 864.823 743.065C838.2 737.318 818.778 750.861 820.609 784.436C817.091 783.584 811.849 785.922 808.386 785.088C793.986 810.578 851.403 803.399 855.701 796.637L864.859 798.613C900.151 794.497 941.517 836.593 967.523 856.317C985.532 826.296 1001 810.578 1033.45 797.072C1044.29 792.558 1064.86 789.457 1055.53 768.79L1055.52 768.772Z" fill="#7C936C"/>
<path d="M786.149 1040.55C784.68 1031.32 783.428 1021.26 778.423 1012.92C768.739 1012.5 755.918 1009.11 747.503 1002.67C734.21 992.504 738.272 990.201 736.604 972.961C733.738 943.265 716.365 930.883 692.626 921.456C658.839 908.023 675.94 870.024 655.973 840.184C633.25 806.21 605.975 861.794 601.006 806.554C599.319 787.809 596.308 773.886 585.844 759.056C573.204 741.145 559.82 750.644 549.211 735.217C538.529 719.716 543.027 699.72 520.394 697.581C500.88 695.713 502.367 712.265 491.033 723.632C473.351 690.946 435.031 713.353 426.489 743.157C423.007 755.34 427.051 773.179 418.274 783.331C408.589 794.517 397.962 789.296 384.796 790.71C368.365 792.486 365.626 796.257 353.186 789.223C342.812 783.349 338.678 775.028 324.333 774.865C292.052 774.484 289.023 801.533 278.577 826.17C268.077 815.71 260.587 789.64 242.343 810.905C230.9 824.248 241.417 853.69 229.412 861.775C222.303 847.308 212.927 835.833 203.406 857.968C197.331 872.073 204.567 891.126 205.238 905.611C206.834 939.694 364.647 907.587 392.14 1042.32L784.263 1038.35C784.753 1039.02 786.385 1043.27 786.167 1040.56L786.149 1040.55Z" fill="#7C936C"/>
<path d="M1379.63 748.195C1383.33 748.939 1384.6 752.039 1385.9 754.704C1386.84 756.625 1387.04 759.2 1386.72 761.339C1386.52 762.626 1384.69 763.714 1383.51 764.783C1383.13 765.146 1382.47 765.418 1381.95 765.4C1379.3 765.364 1376.6 765.454 1374 765.037C1370.5 764.475 1369.89 763.641 1369.13 759.816C1368.46 760.233 1367.87 760.523 1367.35 760.922C1366.51 761.556 1365.81 762.59 1364.88 762.862C1362.8 763.478 1361.8 764.421 1361.18 766.723C1360.82 768.065 1358.28 769.171 1356.5 769.66C1354.06 770.331 1352.3 771.056 1351.04 773.612C1349.47 776.876 1346.95 779.649 1345.01 782.749C1343.43 785.251 1342.92 788.061 1343.3 791.651C1344.46 790.69 1345.26 790.182 1345.86 789.511C1347.62 787.535 1349.49 785.614 1350.92 783.42C1351.64 782.296 1351.68 780.628 1351.7 779.196C1351.73 777.292 1352.53 776.549 1354.4 776.187C1356.41 775.806 1358.32 774.845 1360.28 774.156C1360.8 773.975 1361.36 773.612 1361.87 773.685C1363.94 773.975 1364.99 773.141 1366.12 771.346C1367.31 769.443 1369.63 770.258 1371.41 770.893C1372.44 771.256 1373.33 772.108 1374.17 772.869C1375.42 773.993 1376.33 775.951 1378.5 774.301C1378.67 774.174 1379.19 774.301 1379.41 774.464C1382 776.549 1384.54 778.725 1387.17 780.755C1387.66 781.136 1388.55 781.136 1389.24 781.118C1389.67 781.099 1390.09 780.664 1390.53 780.447C1394.48 778.507 1397.54 780.211 1397.45 784.58C1397.4 786.937 1397.67 788.424 1399.47 788.26C1400.99 790.073 1401.93 791.524 1403.2 792.63C1405.63 794.751 1405.61 798.068 1403.15 800.081C1402.04 800.987 1401.15 802.22 1400.32 803.398C1399 805.284 1397.33 806.263 1394.95 806.154C1394.03 806.118 1393.07 806.444 1392.12 806.661C1389.49 807.278 1386.81 808.946 1384.49 805.864C1384.18 805.465 1383.11 805.592 1382.38 805.574C1379.88 805.538 1377.56 805.61 1375.18 804.015C1373.84 803.126 1371.05 803.398 1369.4 804.196C1366.53 805.574 1363.98 805.392 1361.18 804.395C1357.34 803.036 1353.55 803.126 1349.83 804.939C1346.02 806.788 1344.24 809.725 1345.17 813.859C1346.11 818.028 1347.56 822.089 1348.8 826.186C1349.2 827.528 1349.61 828.87 1350.01 830.211C1344.52 830.465 1339.44 830.701 1334.36 830.918C1333.8 830.936 1333.16 830.882 1332.69 830.61C1331.84 830.139 1331.1 829.468 1330.32 828.888C1331.04 828.38 1331.69 827.619 1332.47 827.437C1334.36 827.02 1335.56 825.969 1336.01 824.156C1336.77 821.092 1337.68 818.01 1337.99 814.892C1338.15 813.315 1337.41 811.448 1336.57 809.997C1334.89 807.06 1332.77 804.359 1330.99 801.477C1330.23 800.226 1329.45 799.609 1327.92 799.646C1324.26 799.754 1320.6 799.646 1316.91 799.718C1316.21 799.718 1315.17 799.99 1314.85 800.48C1313.4 802.8 1311.33 803.326 1308.79 803.181C1307.81 803.126 1306.58 803.181 1305.85 803.706C1304.11 804.957 1302.68 805.066 1300.76 803.942C1299.59 803.253 1297.89 803.525 1296.49 803.181C1294.55 802.691 1292.7 801.875 1290.74 801.477C1288.39 800.987 1287.34 799.482 1286.83 797.361C1286.77 797.126 1286.7 796.89 1286.61 796.654C1285.72 794.606 1283.71 792.648 1286.19 790.363C1287.83 788.877 1289.49 787.39 1291.07 785.849C1291.87 785.088 1292.47 784.127 1293.3 783.384C1294.57 782.242 1295.93 781.208 1297.29 780.175C1297.85 779.74 1298.51 779.432 1299.12 779.051C1299.54 778.779 1299.89 778.308 1300.32 778.217C1303.59 777.51 1306.85 776.549 1310.15 776.386C1311.8 776.295 1313.6 777.637 1315.21 778.525C1316.64 779.323 1317.8 779.105 1319.31 778.598C1320.94 778.036 1322.86 778.217 1324.66 778.271C1325.17 778.271 1326.07 778.96 1326.09 779.359C1326.22 781.915 1328.01 781.897 1329.83 782.187C1330.59 782.296 1331.82 783.039 1331.88 783.583C1332.13 786.411 1333.38 789.384 1331.24 792.013C1330.43 793.028 1330.35 793.754 1331.06 794.968C1331.77 796.183 1331.8 797.76 1332.17 799.174C1332.93 802.147 1334.74 804.123 1338.02 805.102C1338.02 799.374 1338.19 793.862 1337.92 788.387C1337.84 786.828 1336.59 785.287 1335.7 783.837C1332.93 779.341 1330.1 774.881 1327.25 770.422C1326.74 769.642 1326.09 768.953 1325.44 768.137C1324.99 768.554 1324.71 768.736 1324.53 768.971C1321.01 773.54 1315.35 773.395 1312.31 768.464C1311.27 766.796 1310.17 766.306 1308.39 766.451C1304.93 766.741 1302.08 765.001 1299.36 763.242C1297.02 761.72 1296.44 759.254 1297.46 756.553C1297.93 755.266 1298.51 753.978 1299.27 752.836C1300.47 751.096 1301.19 749.301 1300.92 747.162C1300.74 745.694 1301.57 745.023 1302.9 745.005C1304.4 744.986 1304.85 744.243 1304.84 742.847C1304.84 742.158 1304.93 741.107 1305.36 740.817C1309.33 738.242 1310.57 733.402 1314.03 730.483C1314.79 729.849 1316.28 729.595 1317.28 729.812C1320.51 730.538 1323.52 729.033 1324.4 725.933C1325.4 722.488 1330.14 721.219 1333.22 723.866C1335.12 725.498 1337.1 725.697 1339.33 725.425C1339.66 725.389 1339.98 725.371 1340.29 725.262C1341.6 724.773 1343.1 723.558 1344.14 723.884C1346.38 724.591 1348.4 726.06 1350.48 727.274C1350.88 727.51 1351.21 727.945 1351.48 728.326C1352.53 729.794 1353.55 729.704 1354.94 728.652C1357.85 726.44 1360.95 727.039 1363.61 729.613C1365.63 731.553 1368.06 733.076 1370.3 734.762C1372.5 736.412 1374.66 738.134 1376.96 739.62C1380.06 741.633 1381.2 744.733 1379.54 748.177L1379.63 748.195ZM1344.04 805.918C1349.21 802.474 1353.8 799.138 1356.74 794.624C1354.2 793.663 1351.79 792.738 1349.36 791.85C1349 791.723 1348.4 791.614 1348.22 791.796C1346.78 793.264 1344.63 794.606 1344.23 796.346C1343.56 799.229 1344.04 802.383 1344.04 805.918ZM1334.65 758.293C1334.51 758.638 1334.34 758.837 1334.34 759.036C1334.41 762.354 1334.09 765.4 1330.26 766.741C1329.97 766.85 1329.81 768.391 1330.12 768.989C1331.22 771.056 1332.51 773.032 1333.85 774.954C1334.6 776.005 1335.61 776.857 1336.86 778.181C1337.19 773.195 1337.3 768.917 1337.77 764.675C1338.1 761.774 1336.77 759.979 1334.61 758.275L1334.65 758.293ZM1342.85 779.069L1344.14 779.522C1345.68 777.238 1347.24 774.954 1348.78 772.67C1350.01 770.857 1350.17 768.862 1349.41 766.868C1349.2 766.288 1348.42 765.563 1347.87 765.545C1346.13 765.509 1344.37 765.762 1342.85 765.907V779.069ZM1366.41 796.11C1359.99 795.24 1354.53 797.76 1353.84 801.767C1358.68 801.585 1362.45 799.41 1366.41 796.11ZM1367.44 799.972C1363.92 799.337 1361.84 800.443 1361.87 802.945C1366.62 803.815 1367.62 803.289 1367.44 799.972ZM1324.93 798.304L1326.65 796.564C1325.8 796.002 1325 795.276 1324.08 794.968C1323.73 794.841 1323.06 795.657 1322.54 796.038L1324.95 798.322L1324.93 798.304Z" fill="#454F31"/>
<path d="M1762.23 1019.99C1757.77 1018.64 1753.67 1017.65 1749.77 1016.18C1746.31 1014.89 1744.4 1011.97 1744.28 1008.35C1744.19 1005.99 1743.03 1004.81 1741.25 1003.76C1737.51 1001.57 1735.03 998.322 1735.39 993.989C1735.66 990.708 1736.79 987.39 1738.11 984.345C1740.23 979.522 1743.7 975.425 1749.12 974.827C1753.43 974.356 1757.28 972.923 1761.32 971.727C1768.61 969.569 1780.09 972.76 1785.28 980.501C1789.18 986.321 1789.38 992.394 1786.33 998.685C1785.77 999.863 1785.54 1001.42 1785.73 1002.73C1786.24 1006.1 1785.23 1008.78 1782.94 1011.19C1778.1 1016.31 1772.51 1019.75 1764.73 1019.19C1764.72 1026.84 1764.5 1034.34 1766.4 1041.7H1760.73C1763.08 1040.36 1762.7 1038.17 1762.65 1036.08C1762.5 1031.03 1762.38 1025.97 1762.25 1020.91C1762.25 1020.44 1762.25 1019.95 1762.25 1020.02L1762.23 1019.99Z" fill="#454F31"/>
<path d="M1500.75 937.625C1500.75 943.662 1500.7 949.355 1500.77 955.029C1500.82 958.873 1501.19 962.698 1501.2 966.541C1501.2 969.279 1502.17 970.783 1505.07 971.001C1506.34 971.091 1507.57 971.708 1508.82 972.089L1508.69 972.886H1488.66L1488.33 972.361C1489.49 971.889 1490.63 971.164 1491.85 970.983C1496.25 970.348 1496.53 970.094 1496.53 965.616C1496.53 955.863 1496.53 946.128 1496.53 937.081C1491.96 937.335 1487.53 937.915 1483.12 937.716C1476.9 937.426 1473.75 934.108 1472.17 928.071C1469.1 916.378 1471.73 905.102 1475.07 894.097C1477.3 886.737 1480.71 879.649 1484.32 872.814C1486.13 869.369 1489.25 866.432 1492.28 863.84C1495.62 860.958 1499.36 861.338 1502.75 864.166C1508.28 868.789 1511.51 875.008 1514.26 881.462C1520.28 895.548 1524 910.123 1523.2 925.606C1523.11 927.274 1522.84 928.941 1522.46 930.555C1521.3 935.395 1517.73 938.151 1511.92 938.26C1508.31 938.332 1504.67 937.843 1500.77 937.589L1500.75 937.625Z" fill="#454F31"/>
</g>
<defs>
<clipPath id="clip0_938_4149">
<rect width="3634" height="1026" fill="white"/>
</clipPath>
</defs>
</svg>
